<svg width="24" height="24" viewBox="0 0 24 24" fill="none" xmlns="http://www.w3.org/2000/svg">
<rect width="24" height="24" rx="12" fill="#3D3D3D"/>
<path fill-rule="evenodd" clip-rule="evenodd" d="M11.9997 5.33337C8.31967 5.33337 5.33301 8.32004 5.33301 12C5.33301 15.68 8.31967 18.6667 11.9997 18.6667C15.6797 18.6667 18.6663 15.68 18.6663 12C18.6663 8.32004 15.6797 5.33337 11.9997 5.33337ZM11.333 8.66671V10H12.6663V8.66671H11.333ZM11.333 11.3334V15.3334H12.6663V11.3334H11.333ZM6.66634 12C6.66634 14.94 9.05967 17.3334 11.9997 17.3334C14.9397 17.3334 17.333 14.94 17.333 12C17.333 9.06004 14.9397 6.66671 11.9997 6.66671C9.05967 6.66671 6.66634 9.06004 6.66634 12Z" fill="#FEFEFE"/>
</svg>
