<svg width="24" height="24" viewBox="0 0 24 24" fill="none" xmlns="http://www.w3.org/2000/svg">
<rect width="24" height="24" rx="12" fill="#F2F2F2"/>
<path fill-rule="evenodd" clip-rule="evenodd" d="M12.0007 5.33398C8.32065 5.33398 5.33398 8.32065 5.33398 12.0007C5.33398 15.6807 8.32065 18.6673 12.0007 18.6673C15.6807 18.6673 18.6673 15.6807 18.6673 12.0007C18.6673 8.32065 15.6807 5.33398 12.0007 5.33398ZM11.334 8.66732V10.0007H12.6673V8.66732H11.334ZM11.334 11.334V15.334H12.6673V11.334H11.334ZM6.66732 12.0007C6.66732 14.9407 9.06065 17.334 12.0007 17.334C14.9407 17.334 17.334 14.9407 17.334 12.0007C17.334 9.06065 14.9407 6.66732 12.0007 6.66732C9.06065 6.66732 6.66732 9.06065 6.66732 12.0007Z" fill="#141414"/>
</svg>
