<svg width="72" height="72" viewBox="0 0 72 72" fill="none" xmlns="http://www.w3.org/2000/svg">
<path d="M10.128 51.6H11.688V58.68H16.08V60H10.128V51.6ZM19.989 60.084C19.341 60.084 18.757 59.944 18.237 59.664C17.717 59.384 17.309 58.996 17.013 58.5C16.725 57.996 16.581 57.428 16.581 56.796C16.581 56.164 16.725 55.6 17.013 55.104C17.309 54.608 17.717 54.22 18.237 53.94C18.757 53.66 19.341 53.52 19.989 53.52C20.645 53.52 21.233 53.66 21.753 53.94C22.273 54.22 22.677 54.608 22.965 55.104C23.261 55.6 23.409 56.164 23.409 56.796C23.409 57.428 23.261 57.996 22.965 58.5C22.677 58.996 22.273 59.384 21.753 59.664C21.233 59.944 20.645 60.084 19.989 60.084ZM19.989 58.8C20.541 58.8 20.997 58.616 21.357 58.248C21.717 57.88 21.897 57.396 21.897 56.796C21.897 56.196 21.717 55.712 21.357 55.344C20.997 54.976 20.541 54.792 19.989 54.792C19.437 54.792 18.981 54.976 18.621 55.344C18.269 55.712 18.093 56.196 18.093 56.796C18.093 57.396 18.269 57.88 18.621 58.248C18.981 58.616 19.437 58.8 19.989 58.8ZM27.7834 60.084C27.1194 60.084 26.5234 59.944 25.9954 59.664C25.4674 59.384 25.0554 58.996 24.7594 58.5C24.4634 57.996 24.3154 57.428 24.3154 56.796C24.3154 56.164 24.4634 55.6 24.7594 55.104C25.0554 54.608 25.4634 54.22 25.9834 53.94C26.5114 53.66 27.1114 53.52 27.7834 53.52C28.4154 53.52 28.9674 53.648 29.4394 53.904C29.9194 54.16 30.2794 54.528 30.5194 55.008L29.3674 55.68C29.1834 55.384 28.9514 55.164 28.6714 55.02C28.3994 54.868 28.0994 54.792 27.7714 54.792C27.2114 54.792 26.7474 54.976 26.3794 55.344C26.0114 55.704 25.8274 56.188 25.8274 56.796C25.8274 57.404 26.0074 57.892 26.3674 58.26C26.7354 58.62 27.2034 58.8 27.7714 58.8C28.0994 58.8 28.3994 58.728 28.6714 58.584C28.9514 58.432 29.1834 58.208 29.3674 57.912L30.5194 58.584C30.2714 59.064 29.9074 59.436 29.4274 59.7C28.9554 59.956 28.4074 60.084 27.7834 60.084ZM34.264 53.52C35.208 53.52 35.928 53.748 36.424 54.204C36.928 54.652 37.18 55.332 37.18 56.244V60H35.764V59.22C35.58 59.5 35.316 59.716 34.972 59.868C34.636 60.012 34.228 60.084 33.748 60.084C33.268 60.084 32.848 60.004 32.488 59.844C32.128 59.676 31.848 59.448 31.648 59.16C31.456 58.864 31.36 58.532 31.36 58.164C31.36 57.588 31.572 57.128 31.996 56.784C32.428 56.432 33.104 56.256 34.024 56.256H35.68V56.16C35.68 55.712 35.544 55.368 35.272 55.128C35.008 54.888 34.612 54.768 34.084 54.768C33.724 54.768 33.368 54.824 33.016 54.936C32.672 55.048 32.38 55.204 32.14 55.404L31.552 54.312C31.888 54.056 32.292 53.86 32.764 53.724C33.236 53.588 33.736 53.52 34.264 53.52ZM34.06 58.992C34.436 58.992 34.768 58.908 35.056 58.74C35.352 58.564 35.56 58.316 35.68 57.996V57.252H34.132C33.268 57.252 32.836 57.536 32.836 58.104C32.836 58.376 32.944 58.592 33.16 58.752C33.376 58.912 33.676 58.992 34.06 58.992ZM42.9571 59.652C42.7811 59.796 42.5651 59.904 42.3091 59.976C42.0611 60.048 41.7971 60.084 41.5171 60.084C40.8131 60.084 40.2691 59.9 39.8851 59.532C39.5011 59.164 39.3091 58.628 39.3091 57.924V54.84H38.2531V53.64H39.3091V52.176H40.8091V53.64H42.5251V54.84H40.8091V57.888C40.8091 58.2 40.8851 58.44 41.0371 58.608C41.1891 58.768 41.4091 58.848 41.6971 58.848C42.0331 58.848 42.3131 58.76 42.5371 58.584L42.9571 59.652ZM44.191 53.592H45.691V60H44.191V53.592ZM44.947 52.536C44.675 52.536 44.447 52.452 44.263 52.284C44.079 52.108 43.987 51.892 43.987 51.636C43.987 51.38 44.079 51.168 44.263 51C44.447 50.824 44.675 50.736 44.947 50.736C45.219 50.736 45.447 50.82 45.631 50.988C45.815 51.148 45.907 51.352 45.907 51.6C45.907 51.864 45.815 52.088 45.631 52.272C45.455 52.448 45.227 52.536 44.947 52.536ZM50.5398 60.084C49.8918 60.084 49.3078 59.944 48.7878 59.664C48.2678 59.384 47.8598 58.996 47.5638 58.5C47.2758 57.996 47.1318 57.428 47.1318 56.796C47.1318 56.164 47.2758 55.6 47.5638 55.104C47.8598 54.608 48.2678 54.22 48.7878 53.94C49.3078 53.66 49.8918 53.52 50.5398 53.52C51.1958 53.52 51.7838 53.66 52.3038 53.94C52.8238 54.22 53.2278 54.608 53.5158 55.104C53.8118 55.6 53.9598 56.164 53.9598 56.796C53.9598 57.428 53.8118 57.996 53.5158 58.5C53.2278 58.996 52.8238 59.384 52.3038 59.664C51.7838 59.944 51.1958 60.084 50.5398 60.084ZM50.5398 58.8C51.0918 58.8 51.5478 58.616 51.9078 58.248C52.2678 57.88 52.4478 57.396 52.4478 56.796C52.4478 56.196 52.2678 55.712 51.9078 55.344C51.5478 54.976 51.0918 54.792 50.5398 54.792C49.9878 54.792 49.5318 54.976 49.1718 55.344C48.8198 55.712 48.6438 56.196 48.6438 56.796C48.6438 57.396 48.8198 57.88 49.1718 58.248C49.5318 58.616 49.9878 58.8 50.5398 58.8ZM59.0302 53.52C59.8382 53.52 60.4862 53.756 60.9742 54.228C61.4622 54.7 61.7062 55.4 61.7062 56.328V60H60.2062V56.52C60.2062 55.96 60.0742 55.54 59.8102 55.26C59.5462 54.972 59.1702 54.828 58.6822 54.828C58.1302 54.828 57.6942 54.996 57.3742 55.332C57.0542 55.66 56.8942 56.136 56.8942 56.76V60H55.3942V53.592H56.8222V54.42C57.0702 54.124 57.3822 53.9 57.7582 53.748C58.1342 53.596 58.5582 53.52 59.0302 53.52Z" fill="#4696F0"/>
<path fill-rule="evenodd" clip-rule="evenodd" d="M27 21.75C27 16.9125 30.9125 13 35.75 13C40.5875 13 44.5 16.9125 44.5 21.75C44.5 28.3125 35.75 38 35.75 38C35.75 38 27 28.3125 27 21.75ZM35.75 23.5C37.4069 23.5 38.75 22.1569 38.75 20.5C38.75 18.8431 37.4069 17.5 35.75 17.5C34.0931 17.5 32.75 18.8431 32.75 20.5C32.75 22.1569 34.0931 23.5 35.75 23.5Z" fill="#4696F0"/>
</svg>
