<svg width="360" height="353" viewBox="0 0 360 353" fill="none" xmlns="http://www.w3.org/2000/svg">
<g clip-path="url(#clip0_482_12108)">
<path d="M360 -42H0V353H360V-42Z" fill="#13436E"/>
<path d="M295.501 243.585C280.801 231.636 262.101 225.612 243.201 225.612H116.901C97.9006 225.612 79.2006 231.636 64.5006 243.585C55.2298 251.03 47.7608 260.426 42.6395 271.087C37.5183 281.748 34.8742 293.405 34.9006 305.205V353H325.101V305.205C325.127 293.405 322.483 281.748 317.362 271.087C312.24 260.426 304.771 251.03 295.501 243.585Z" fill="#0C2744"/>
<path d="M171.201 193.321C183.192 194.601 195.321 193.209 206.696 189.25C218.071 185.29 228.403 178.863 236.931 170.441C245.459 162.02 251.968 151.817 255.977 140.584C259.987 129.352 261.396 117.374 260.101 105.533C256.201 68.6002 226.101 38.9752 188.701 35.0252C167.444 32.7336 146.135 38.8746 129.463 52.0973C112.791 65.32 102.121 84.5413 99.8007 105.533C97.4801 126.524 103.699 147.566 117.089 164.03C130.479 180.493 149.944 191.03 171.201 193.321Z" fill="#0C2744"/>
</g>
<defs>
<clipPath id="clip0_482_12108">
<path d="M0 -42H360V353H80C35.8172 353 0 317.183 0 273V-42Z" fill="white"/>
</clipPath>
</defs>
</svg>
