<svg width="18" height="18" viewBox="0 0 18 18" fill="none" xmlns="http://www.w3.org/2000/svg">
<path d="M2 0H16C17.1 0 18 0.9 18 2V16C18 17.1 17.1 18 16 18H2C0.9 18 0 17.1 0 16V2C0 0.9 0.9 0 2 0Z" fill="#131940"/>
<path d="M5.03125 13.9686C5.26042 14.1977 5.5375 14.3123 5.8625 14.3123H12.1375C12.4625 14.3123 12.7417 14.1977 12.975 13.9686C13.2083 13.7394 13.325 13.4623 13.325 13.1373V6.5998L10.4 3.6748H5.8625C5.5375 3.6748 5.26042 3.79147 5.03125 4.0248C4.80208 4.25814 4.6875 4.5373 4.6875 4.8623V13.1373C4.6875 13.4623 4.80208 13.7394 5.03125 13.9686Z" fill="white"/>
<path d="M8.28 10.79C8.28 10.53 8.32333 10.3033 8.41 10.11C8.49667 9.91667 8.60333 9.74333 8.73 9.59C8.86333 9.43667 9.00667 9.29667 9.16 9.17C9.31333 9.03667 9.45667 8.90667 9.59 8.78C9.72333 8.64667 9.83 8.50667 9.91 8.36C9.99667 8.21333 10.04 8.04333 10.04 7.85C10.04 7.53 9.91333 7.27 9.66 7.07C9.40667 6.87 9.05667 6.77 8.61 6.77C8.21 6.77 7.86333 6.83667 7.57 6.97C7.27667 7.10333 7.02667 7.3 6.82 7.56L6.09 7.04C6.37 6.68667 6.72667 6.41333 7.16 6.22C7.59333 6.02 8.1 5.92 8.68 5.92C9.16 5.92 9.57667 5.99333 9.93 6.14C10.2833 6.28 10.5567 6.48333 10.75 6.75C10.95 7.01 11.05 7.32667 11.05 7.7C11.05 7.98 11.0067 8.22 10.92 8.42C10.8333 8.62 10.7233 8.79667 10.59 8.95C10.4567 9.10333 10.3133 9.24667 10.16 9.38C10.0133 9.51333 9.87333 9.64667 9.74 9.78C9.60667 9.91333 9.49667 10.06 9.41 10.22C9.32333 10.38 9.28 10.57 9.28 10.79H8.28ZM8.79 13.06C8.60333 13.06 8.44667 12.9967 8.32 12.87C8.2 12.7433 8.14 12.5933 8.14 12.42C8.14 12.2333 8.2 12.08 8.32 11.96C8.44667 11.84 8.60333 11.78 8.79 11.78C8.97667 11.78 9.13 11.84 9.25 11.96C9.37 12.08 9.43 12.2333 9.43 12.42C9.43 12.5933 9.37 12.7433 9.25 12.87C9.13 12.9967 8.97667 13.06 8.79 13.06Z" fill="#131940"/>
</svg>
