<svg width="16" height="17" viewBox="0 0 16 17" fill="none" xmlns="http://www.w3.org/2000/svg">
<path fill-rule="evenodd" clip-rule="evenodd" d="M8 0.5C3.584 0.5 0 4.084 0 8.5C0 12.916 3.584 16.5 8 16.5C12.416 16.5 16 12.916 16 8.5C16 4.084 12.416 0.5 8 0.5ZM1.6 8.5C1.6 4.964 4.464 2.1 8 2.1C9.48 2.1 10.84 2.604 11.92 3.452L2.952 12.42C2.104 11.34 1.6 9.98 1.6 8.5ZM4.08 13.548C5.16 14.396 6.52 14.9 8 14.9C11.536 14.9 14.4 12.036 14.4 8.5C14.4 7.02 13.896 5.66 13.048 4.58L4.08 13.548Z" fill="#E84E4E"/>
</svg>
