<svg width="20" height="20" viewBox="0 0 20 20" fill="none" xmlns="http://www.w3.org/2000/svg">
<path d="M13.3416 12.05L11.1583 14.2333C8.86664 12.9917 6.98331 11.1083 5.74164 8.81667L7.92497 6.63333C8.12497 6.43333 8.20831 6.15 8.14997 5.88333L7.60831 3.16667C7.53331 2.78333 7.19164 2.5 6.79164 2.5H3.33331C2.86664 2.5 2.47497 2.89167 2.49997 3.35833C2.64164 5.78333 3.36664 8.05 4.52497 10.0333C5.83331 12.275 7.69997 14.1417 9.94164 15.45C11.925 16.6083 14.1916 17.3333 16.6166 17.475C17.0833 17.5 17.475 17.1083 17.475 16.6417V13.1833C17.475 12.7833 17.1916 12.4417 16.8083 12.3667L14.0916 11.825C13.8166 11.7667 13.5333 11.8583 13.3416 12.05Z" fill="#9BB4CF"/>
</svg>
