<svg width="17" height="16" viewBox="0 0 17 16" fill="none" xmlns="http://www.w3.org/2000/svg">
<path d="M8.91729 0C4.50129 0 0.925293 3.584 0.925293 8C0.925293 12.416 4.50129 16 8.91729 16C13.3413 16 16.9253 12.416 16.9253 8C16.9253 3.584 13.3413 0 8.91729 0ZM8.92529 14.4C5.38929 14.4 2.52529 11.536 2.52529 8C2.52529 4.464 5.38929 1.6 8.92529 1.6C12.4613 1.6 15.3253 4.464 15.3253 8C15.3253 11.536 12.4613 14.4 8.92529 14.4ZM8.92529 12.4C10.7893 12.4 12.3813 11.24 13.0213 9.6H11.6853C11.1333 10.552 10.1093 11.2 8.92529 11.2C7.74129 11.2 6.72529 10.552 6.16529 9.6H4.82929C5.46929 11.24 7.06129 12.4 8.92529 12.4Z" fill="#9AA0A6"/>
<path d="M6.12627 7.20078C6.78901 7.20078 7.32627 6.66352 7.32627 6.00078C7.32627 5.33804 6.78901 4.80078 6.12627 4.80078C5.46353 4.80078 4.92627 5.33804 4.92627 6.00078C4.92627 6.66352 5.46353 7.20078 6.12627 7.20078Z" fill="#9AA0A6"/>
<path d="M11.7249 7.20078C12.3876 7.20078 12.9249 6.66352 12.9249 6.00078C12.9249 5.33804 12.3876 4.80078 11.7249 4.80078C11.0622 4.80078 10.5249 5.33804 10.5249 6.00078C10.5249 6.66352 11.0622 7.20078 11.7249 7.20078Z" fill="#9AA0A6"/>
</svg>
