<svg width="24" height="24" viewBox="0 0 24 24" fill="none" xmlns="http://www.w3.org/2000/svg">
<path fill-rule="evenodd" clip-rule="evenodd" d="M9.04768 2.50134C9.25227 2.29675 9.52974 2.18182 9.81907 2.18182H14.1827C14.472 2.18182 14.7495 2.29675 14.9541 2.50134C15.1587 2.70592 15.2736 2.9834 15.2736 3.27273V4.36364H8.72816V3.27273C8.72816 2.9834 8.8431 2.70592 9.04768 2.50134ZM6.54634 4.36364V3.27273C6.54634 2.40475 6.89115 1.57231 7.5049 0.95856C8.11866 0.344804 8.95109 0 9.81907 0H14.1827C15.0507 0 15.8831 0.344804 16.4969 0.95856C17.1106 1.57231 17.4554 2.40475 17.4554 3.27273V4.36364H19.6373H21.8191C22.4216 4.36364 22.91 4.85205 22.91 5.45455C22.91 6.05704 22.4216 6.54545 21.8191 6.54545H20.7282V20.7273C20.7282 21.5953 20.3834 22.4277 19.7696 23.0414C19.1558 23.6552 18.3234 24 17.4554 24H6.54634C5.67836 24 4.84593 23.6552 4.23217 23.0414C3.61842 22.4277 3.27362 21.5953 3.27362 20.7273V6.54545H2.18271C1.58021 6.54545 1.0918 6.05704 1.0918 5.45455C1.0918 4.85205 1.58021 4.36364 2.18271 4.36364H4.36452H6.54634ZM5.45543 6.54545H7.63725H16.3645H18.5463V20.7273C18.5463 21.0166 18.4314 21.2941 18.2268 21.4987C18.0222 21.7032 17.7448 21.8182 17.4554 21.8182H6.54634C6.25702 21.8182 5.97954 21.7032 5.77495 21.4987C5.57037 21.2941 5.45543 21.0166 5.45543 20.7273V6.54545ZM9.81907 9.81818C10.4216 9.81818 10.91 10.3066 10.91 10.9091V17.4545C10.91 18.057 10.4216 18.5455 9.81907 18.5455C9.21658 18.5455 8.72816 18.057 8.72816 17.4545V10.9091C8.72816 10.3066 9.21658 9.81818 9.81907 9.81818ZM15.2736 10.9091C15.2736 10.3066 14.7852 9.81818 14.1827 9.81818C13.5802 9.81818 13.0918 10.3066 13.0918 10.9091V17.4545C13.0918 18.057 13.5802 18.5455 14.1827 18.5455C14.7852 18.5455 15.2736 18.057 15.2736 17.4545V10.9091Z" fill="#FFE3E3"/>
</svg>
