<svg width="360" height="353" viewBox="0 0 360 353" fill="none" xmlns="http://www.w3.org/2000/svg">
<g clip-path="url(#clip0_482_12457)">
<path d="M360 -42H0V353H360V-42Z" fill="#13436E"/>
<path d="M358.4 259.583C345.9 249.411 330 244.276 313.8 244.276H206C189.8 244.276 173.8 249.411 161.3 259.583C153.383 265.945 147.004 273.971 142.627 283.076C138.25 292.182 135.986 302.137 136 312.216V353H383.7V312.216C383.714 302.137 381.45 292.182 377.073 283.076C372.696 273.971 366.317 265.945 358.4 259.583Z" fill="#103251"/>
<path d="M252.401 216.725C266.563 218.257 280.858 215.409 293.312 208.575C305.765 201.741 315.763 191.257 321.925 178.572C328.086 165.887 330.108 151.625 327.711 137.757C325.313 123.888 318.615 111.097 308.541 101.148C298.466 91.1998 285.513 84.5853 271.469 82.2179C257.425 79.8504 242.983 81.8469 230.137 87.9316C217.291 94.0163 206.675 103.889 199.754 116.187C192.833 128.485 189.95 142.601 191.501 156.586C193.223 171.951 200.193 186.279 211.263 197.21C222.332 208.141 236.841 215.024 252.401 216.725Z" fill="#103251"/>
<path d="M222.9 238.845C207.6 226.402 188.1 220.181 168.3 220.181H36.5998C16.7998 220.181 -2.70021 226.402 -17.9002 238.845C-27.6055 246.612 -35.4271 256.426 -40.7912 267.567C-46.1554 278.708 -48.9261 290.894 -48.9002 303.23V353H253.8V303.23C253.824 290.904 251.062 278.728 245.716 267.59C240.371 256.451 232.576 246.631 222.9 238.845Z" fill="#0C2744"/>
<path d="M93.2995 186.508C110.61 188.39 128.085 184.92 143.313 176.575C158.541 168.231 170.77 155.424 178.311 139.923C185.853 124.422 188.336 106.991 185.416 90.0368C182.497 73.0827 174.32 57.4417 162.014 45.2731C149.708 33.1046 133.88 25.0086 116.715 22.1031C99.5504 19.1976 81.8955 21.6258 66.188 29.0524C50.4806 36.4791 37.4952 48.5378 29.0246 63.5639C20.5541 78.59 17.0163 95.8423 18.8995 112.939C20.9697 131.733 29.4711 149.266 42.9987 162.643C56.5264 176.019 74.2707 184.438 93.2995 186.508Z" fill="#0C2744"/>
</g>
<defs>
<clipPath id="clip0_482_12457">
<path d="M0 -42H360V353H80C35.8172 353 0 317.183 0 273V-42Z" fill="white"/>
</clipPath>
</defs>
</svg>
