<svg width="14" height="14" viewBox="0 0 14 14" fill="none" xmlns="http://www.w3.org/2000/svg">
<path fill-rule="evenodd" clip-rule="evenodd" d="M6.2832 11.0713C6.2832 11.3609 6.39997 11.6386 6.60783 11.8433C6.81568 12.0481 7.09759 12.1631 7.39154 12.1631C7.68548 12.1631 7.96739 12.0481 8.17525 11.8433C8.3831 11.6386 8.49987 11.3609 8.49987 11.0713H6.2832Z" fill="#141414"/>
<path fill-rule="evenodd" clip-rule="evenodd" d="M10.7242 6.14627V8.42836L9.96588 7.68134L9.61588 7.33657L6.28255 4.05299L5.44922 3.23209C5.77867 2.98109 6.15538 2.79694 6.55755 2.6903V2.3209C6.55755 2.10318 6.64535 1.89438 6.80163 1.74043C6.95791 1.58649 7.16987 1.5 7.39088 1.5C7.6119 1.5 7.82386 1.58649 7.98014 1.74043C8.13642 1.89438 8.22422 2.10318 8.22422 2.3209V2.6903C8.98362 2.89053 9.64854 3.34501 10.1048 3.97568C10.561 4.60634 10.78 5.37382 10.7242 6.14627Z" fill="#141414"/>
<path fill-rule="evenodd" clip-rule="evenodd" d="M12.5 11.7282L11.7167 12.4999L9.70833 10.5297H2.95V9.42973H4.05833V6.14615C4.05951 5.79188 4.10428 5.43906 4.19167 5.09541L1.5 2.4357L2.28333 1.66406L12.5 11.7282Z" fill="#141414"/>
</svg>
