<svg width="24" height="24" viewBox="0 0 24 24" fill="none" xmlns="http://www.w3.org/2000/svg">
<g id="Frame" clip-path="url(#clip0_621_7077)">
<g id="Group">
<path id="Vector" d="M10.0998 5.2C10.6998 5.1 11.3998 5 11.9998 5C17.3998 5 20.8998 10.4 21.8998 12C21.3998 12.9 20.7998 13.8 20.0998 14.5C19.6998 14.9 19.7998 15.6 20.1998 15.9C20.3998 16.1 20.5998 16.1 20.7998 16.1C21.0998 16.1 21.3998 16 21.5998 15.7C22.4998 14.7 23.1998 13.5 23.8998 12.3C24.0998 12 24.0998 11.7 23.8998 11.4C23.6998 11.2 19.4998 3 11.9998 3C11.1998 3 10.3998 3.1 9.69981 3.3C9.09981 3.4 8.79981 3.9 8.89981 4.5C9.09981 5 9.59981 5.3 10.0998 5.2Z" fill="white"/>
<path id="Vector_2" d="M23.6992 22.3L1.69922 0.3C1.29922 -0.1 0.699219 -0.1 0.299219 0.3C-0.100781 0.7 -0.100781 1.3 0.299219 1.7L4.59922 6C2.79922 7.6 1.29922 9.4 0.0992188 11.5C-0.100781 11.8 -0.100781 12.1 0.0992188 12.4C0.299219 12.8 4.49922 21 11.9992 21C14.0992 21 16.0992 20.4 17.7992 19.2L22.2992 23.7C22.4992 23.9 22.7992 24 22.9992 24C23.1992 24 23.4992 23.9 23.6992 23.7C24.0992 23.3 24.0992 22.7 23.6992 22.3ZM9.99922 11.5L12.4992 14C12.2992 14.1 12.0992 14.1 11.8992 14.1C11.5992 14.1 11.3992 14.1 11.0992 14C10.8992 13.9 10.5992 13.8 10.3992 13.6C10.1992 13.4 10.0992 13.2 9.99922 12.9C9.99922 12.6 9.89922 12.3 9.89922 12C9.89922 11.8 9.99922 11.6 9.99922 11.5ZM11.9992 19C6.59922 19 3.09922 13.6 2.09922 12C3.09922 10.2 4.39922 8.7 5.99922 7.4L8.49922 10C8.39922 10.2 8.29922 10.3 8.19922 10.5C7.99922 11 7.89922 11.5 7.89922 12.1C7.89922 12.6 7.99922 13.2 8.19922 13.7C8.39922 14.2 8.69922 14.6 9.09922 15C9.49922 15.4 9.89922 15.7 10.3992 15.9C10.8992 16.1 11.3992 16.2 11.8992 16.2H11.9992C12.4992 16.2 13.0992 16.1 13.5992 15.9C13.7992 15.8 13.8992 15.7 14.0992 15.6L16.3992 17.9C14.9992 18.6 13.4992 19 11.9992 19Z" fill="white"/>
</g>
</g>
<defs>
<clipPath id="clip0_621_7077">
<rect width="24" height="24" fill="white"/>
</clipPath>
</defs>
</svg>
