<svg width="72" height="72" viewBox="0 0 72 72" fill="none" xmlns="http://www.w3.org/2000/svg">
<path d="M54.0014 54.0013C63.9417 54.0013 72 45.9431 72 36.0027C72 26.0624 63.9417 18.0042 54.0014 18.0042C44.061 18.0042 36.0028 26.0624 36.0028 36.0027C36.0028 45.9431 44.061 54.0013 54.0014 54.0013Z" fill="#4696F0"/>
<path d="M17.9986 54.0013C27.9389 54.0013 35.9972 45.9431 35.9972 36.0027C35.9972 26.0624 27.9389 18.0042 17.9986 18.0042C8.05824 18.0042 0 26.0624 0 36.0027C0 45.9431 8.05824 54.0013 17.9986 54.0013Z" fill="#4696F0"/>
<path d="M36.0027 35.9972C45.9431 35.9972 54.0013 27.9389 54.0013 17.9986C54.0013 8.05824 45.9431 0 36.0027 0C26.0624 0 18.0042 8.05824 18.0042 17.9986C18.0042 27.9389 26.0624 35.9972 36.0027 35.9972Z" fill="#F3B74C"/>
<path d="M36.0027 72.0001C45.9431 72.0001 54.0013 63.9419 54.0013 54.0015C54.0013 44.0612 45.9431 36.0029 36.0027 36.0029C26.0624 36.0029 18.0042 44.0612 18.0042 54.0015C18.0042 63.9419 26.0624 72.0001 36.0027 72.0001Z" fill="#F3B74C"/>
<path d="M8.4706 35.996C8.4715 30.0211 10.4162 24.2086 14.0112 19.4362C17.6062 14.6639 22.6562 11.1906 28.3989 9.54088C34.1415 7.89115 40.265 8.15451 45.8448 10.2912C51.4246 12.4279 56.1578 16.3219 59.3297 21.3853C62.5017 26.4488 63.9402 32.4067 63.4281 38.3596C62.916 44.3125 60.4811 49.9373 56.491 54.3846C52.5008 58.8319 47.1722 61.8603 41.3094 63.0126C35.4467 64.165 29.3682 63.3787 23.9917 60.7724H12.9799C12.516 60.771 12.0715 60.586 11.7435 60.258C11.4154 59.93 11.2305 59.4855 11.229 59.0216V48.0098C9.40949 44.2665 8.46616 40.1581 8.4706 35.996Z" fill="#131940"/>
<path d="M41.1642 28.8646C40.6925 28.2687 40.0469 27.8342 39.2276 27.5611C38.4331 27.2632 37.6759 27.1142 36.9559 27.1142C36.5338 27.1142 36.0993 27.1639 35.6524 27.2632C35.2055 27.3625 34.7835 27.5239 34.3862 27.7473C33.989 27.946 33.6662 28.2191 33.418 28.5666C33.1697 28.9142 33.0455 29.3363 33.0455 29.8329C33.0455 30.6273 33.3435 31.2356 33.9393 31.6577C34.5352 32.0798 35.28 32.4398 36.1738 32.7377C37.0924 33.0356 38.0731 33.3335 39.1159 33.6315C40.1587 33.9294 41.1269 34.3515 42.0207 34.8977C42.9394 35.4439 43.6966 36.1763 44.2925 37.0949C44.8883 38.0136 45.1863 39.2425 45.1863 40.7818C45.1863 42.2467 44.9131 43.5253 44.3669 44.6177C43.8207 45.7101 43.0759 46.6163 42.1325 47.3363C41.2138 48.0563 40.1338 48.5901 38.8925 48.9377C37.6759 49.2853 36.3849 49.4591 35.0193 49.4591C33.3062 49.4591 31.7173 49.1984 30.2524 48.677C28.7876 48.1556 27.4221 47.3115 26.1559 46.1446L30.2897 41.6011C30.8855 42.3956 31.6304 43.0163 32.5242 43.4632C33.4428 43.8853 34.3862 44.0963 35.3545 44.0963C35.8262 44.0963 36.298 44.0467 36.7697 43.9474C37.2662 43.8232 37.7007 43.6494 38.0731 43.426C38.4704 43.2025 38.7807 42.917 39.0042 42.5694C39.2525 42.2218 39.3766 41.8122 39.3766 41.3405C39.3766 40.546 39.0662 39.9253 38.4456 39.4784C37.8497 39.0067 37.0924 38.6094 36.1738 38.2867C35.2552 37.9639 34.2621 37.6411 33.1945 37.3184C32.1269 36.9956 31.1338 36.5611 30.2152 36.0149C29.2966 35.4687 28.5269 34.7487 27.9062 33.8549C27.3104 32.9611 27.0124 31.7818 27.0124 30.317C27.0124 28.9018 27.2855 27.6604 27.8317 26.5928C28.4028 25.5253 29.1476 24.6315 30.0662 23.9115C31.0097 23.1915 32.0897 22.6577 33.3062 22.3101C34.5228 21.9377 35.7766 21.7515 37.0676 21.7515C38.5573 21.7515 39.9973 21.9625 41.3876 22.3846C42.778 22.8066 44.0318 23.5142 45.149 24.5073L41.1642 28.8646Z" fill="white"/>
</svg>
