<svg width="16" height="16" viewBox="0 0 16 16" fill="none" xmlns="http://www.w3.org/2000/svg">
<path fill-rule="evenodd" clip-rule="evenodd" d="M7.99967 1.3335C8.36786 1.3335 8.66634 1.63197 8.66634 2.00016V8.39069L10.8616 6.19542C11.122 5.93508 11.5441 5.93508 11.8044 6.19542C12.0648 6.45577 12.0648 6.87788 11.8044 7.13823L8.47108 10.4716C8.40716 10.5355 8.33349 10.5837 8.25486 10.6162C8.17626 10.6488 8.09007 10.6668 7.99967 10.6668C7.81558 10.6668 7.64891 10.5922 7.52827 10.4716L4.19494 7.13823C3.93459 6.87788 3.93459 6.45577 4.19494 6.19542C4.45529 5.93508 4.8774 5.93508 5.13775 6.19542L7.33301 8.39069V2.00016C7.33301 1.63197 7.63148 1.3335 7.99967 1.3335ZM1.99967 9.3335C2.36786 9.3335 2.66634 9.63197 2.66634 10.0002V12.6668C2.66634 12.8436 2.73658 13.0132 2.8616 13.1382C2.98663 13.2633 3.1562 13.3335 3.33301 13.3335H12.6663C12.8432 13.3335 13.0127 13.2633 13.1377 13.1382C13.2628 13.0132 13.333 12.8436 13.333 12.6668V10.0002C13.333 9.63197 13.6315 9.3335 13.9997 9.3335C14.3679 9.3335 14.6663 9.63197 14.6663 10.0002V12.6668C14.6663 13.1973 14.4556 13.706 14.0806 14.081C13.7055 14.4561 13.1968 14.6668 12.6663 14.6668H3.33301C2.80257 14.6668 2.29387 14.4561 1.91879 14.081C1.54372 13.706 1.33301 13.1973 1.33301 12.6668V10.0002C1.33301 9.63197 1.63148 9.3335 1.99967 9.3335Z" fill="white"/>
</svg>
