<svg width="17" height="13" viewBox="0 0 17 13" fill="none" xmlns="http://www.w3.org/2000/svg">
<path fill-rule="evenodd" clip-rule="evenodd" d="M5.72727 6C5.72727 4.19252 7.19252 2.72727 9 2.72727C10.8075 2.72727 12.2727 4.19252 12.2727 6C12.2727 7.80748 10.8075 9.27273 9 9.27273C7.19252 9.27273 5.72727 7.80748 5.72727 6ZM9 2C6.79086 2 5 3.79086 5 6C5 8.20914 6.79086 10 9 10C11.2091 10 13 8.20914 13 6C13 3.79086 11.2091 2 9 2ZM9.36364 3.81818C9.36364 3.61735 9.20083 3.45455 9 3.45455C8.79917 3.45455 8.63636 3.61735 8.63636 3.81818V6C8.63636 6.13774 8.71418 6.26365 8.83738 6.32525L10.2919 7.05252C10.4716 7.14233 10.69 7.06952 10.7798 6.8899C10.8696 6.71027 10.7968 6.49184 10.6172 6.40203L9.36364 5.77526V3.81818Z" fill="#E9E9E9"/>
</svg>
