<svg width="72" height="72" viewBox="0 0 72 72" fill="none" xmlns="http://www.w3.org/2000/svg">
<path d="M46.25 33.75V16.25C46.25 14.875 45.125 13.75 43.75 13.75H26.25C24.875 13.75 23.75 14.875 23.75 16.25V33.75C23.75 35.125 24.875 36.25 26.25 36.25H43.75C45.125 36.25 46.25 35.125 46.25 33.75ZM30.625 26.875L33.75 30.6375L38.125 25L43.75 32.5H26.25L30.625 26.875Z" fill="#4696F0"/>
<path d="M15.128 51.6H16.688V58.68H21.08V60H15.128V51.6ZM22.1676 53.592H23.6676V60H22.1676V53.592ZM22.9236 52.536C22.6516 52.536 22.4236 52.452 22.2396 52.284C22.0556 52.108 21.9636 51.892 21.9636 51.636C21.9636 51.38 22.0556 51.168 22.2396 51C22.4236 50.824 22.6516 50.736 22.9236 50.736C23.1956 50.736 23.4236 50.82 23.6076 50.988C23.7916 51.148 23.8836 51.352 23.8836 51.6C23.8836 51.864 23.7916 52.088 23.6076 52.272C23.4316 52.448 23.2036 52.536 22.9236 52.536ZM29.1883 53.52C29.8123 53.52 30.3683 53.656 30.8563 53.928C31.3523 54.2 31.7403 54.584 32.0203 55.08C32.3003 55.576 32.4403 56.148 32.4403 56.796C32.4403 57.444 32.3003 58.02 32.0203 58.524C31.7403 59.02 31.3523 59.404 30.8563 59.676C30.3683 59.948 29.8123 60.084 29.1883 60.084C28.7483 60.084 28.3443 60.008 27.9763 59.856C27.6163 59.704 27.3123 59.476 27.0643 59.172V60H25.6363V51.096H27.1363V54.372C27.3923 54.092 27.6923 53.88 28.0363 53.736C28.3883 53.592 28.7723 53.52 29.1883 53.52ZM29.0203 58.8C29.5723 58.8 30.0243 58.616 30.3763 58.248C30.7363 57.88 30.9163 57.396 30.9163 56.796C30.9163 56.196 30.7363 55.712 30.3763 55.344C30.0243 54.976 29.5723 54.792 29.0203 54.792C28.6603 54.792 28.3363 54.876 28.0483 55.044C27.7603 55.204 27.5323 55.436 27.3643 55.74C27.1963 56.044 27.1123 56.396 27.1123 56.796C27.1123 57.196 27.1963 57.548 27.3643 57.852C27.5323 58.156 27.7603 58.392 28.0483 58.56C28.3363 58.72 28.6603 58.8 29.0203 58.8ZM35.2909 54.528C35.7229 53.856 36.4829 53.52 37.5709 53.52V54.948C37.4429 54.924 37.3269 54.912 37.2229 54.912C36.6389 54.912 36.1829 55.084 35.8549 55.428C35.5269 55.764 35.3629 56.252 35.3629 56.892V60H33.8629V53.592H35.2909V54.528ZM41.2562 53.52C42.2002 53.52 42.9202 53.748 43.4162 54.204C43.9202 54.652 44.1722 55.332 44.1722 56.244V60H42.7562V59.22C42.5722 59.5 42.3082 59.716 41.9642 59.868C41.6282 60.012 41.2202 60.084 40.7402 60.084C40.2602 60.084 39.8402 60.004 39.4802 59.844C39.1202 59.676 38.8402 59.448 38.6402 59.16C38.4482 58.864 38.3522 58.532 38.3522 58.164C38.3522 57.588 38.5642 57.128 38.9882 56.784C39.4202 56.432 40.0962 56.256 41.0162 56.256H42.6722V56.16C42.6722 55.712 42.5362 55.368 42.2642 55.128C42.0002 54.888 41.6042 54.768 41.0762 54.768C40.7162 54.768 40.3602 54.824 40.0082 54.936C39.6642 55.048 39.3722 55.204 39.1322 55.404L38.5442 54.312C38.8802 54.056 39.2842 53.86 39.7562 53.724C40.2282 53.588 40.7282 53.52 41.2562 53.52ZM41.0522 58.992C41.4282 58.992 41.7602 58.908 42.0482 58.74C42.3442 58.564 42.5522 58.316 42.6722 57.996V57.252H41.1242C40.2602 57.252 39.8282 57.536 39.8282 58.104C39.8282 58.376 39.9362 58.592 40.1522 58.752C40.3682 58.912 40.6682 58.992 41.0522 58.992ZM47.5253 54.528C47.9573 53.856 48.7173 53.52 49.8053 53.52V54.948C49.6773 54.924 49.5613 54.912 49.4573 54.912C48.8733 54.912 48.4173 55.084 48.0893 55.428C47.7613 55.764 47.5973 56.252 47.5973 56.892V60H46.0973V53.592H47.5253V54.528ZM57.3121 53.592L54.3121 60.516C54.0321 61.212 53.6921 61.7 53.2921 61.98C52.8921 62.268 52.4081 62.412 51.8401 62.412C51.5201 62.412 51.2041 62.36 50.8921 62.256C50.5801 62.152 50.3241 62.008 50.1241 61.824L50.7241 60.72C50.8681 60.856 51.0361 60.964 51.2281 61.044C51.4281 61.124 51.6281 61.164 51.8281 61.164C52.0921 61.164 52.3081 61.096 52.4761 60.96C52.6521 60.824 52.8121 60.596 52.9561 60.276L53.0641 60.024L50.2681 53.592H51.8281L53.8441 58.332L55.8721 53.592H57.3121Z" fill="#4696F0"/>
</svg>
