<svg width="18" height="16" viewBox="0 0 18 16" fill="none" xmlns="http://www.w3.org/2000/svg">
<path d="M2.67013 7.36842C2.13679 7.36842 1.68767 7.18597 1.32276 6.82105C0.957847 6.45614 0.775391 6.00702 0.775391 5.47368C0.775391 4.94035 0.957847 4.49123 1.32276 4.12632C1.68767 3.7614 2.13679 3.57895 2.67013 3.57895C3.20346 3.57895 3.65258 3.7614 4.0175 4.12632C4.38241 4.49123 4.56486 4.94035 4.56486 5.47368C4.56486 6.00702 4.38241 6.45614 4.0175 6.82105C3.65258 7.18597 3.20346 7.36842 2.67013 7.36842ZM6.56486 3.78947C6.03153 3.78947 5.58241 3.60702 5.2175 3.24211C4.85258 2.87719 4.67013 2.42807 4.67013 1.89474C4.67013 1.3614 4.85258 0.912281 5.2175 0.547368C5.58241 0.182456 6.03153 0 6.56486 0C7.0982 0 7.54732 0.182456 7.91223 0.547368C8.27715 0.912281 8.4596 1.3614 8.4596 1.89474C8.4596 2.42807 8.27715 2.87719 7.91223 3.24211C7.54732 3.60702 7.0982 3.78947 6.56486 3.78947ZM11.828 3.78947C11.2947 3.78947 10.8456 3.60702 10.4807 3.24211C10.1157 2.87719 9.93329 2.42807 9.93329 1.89474C9.93329 1.3614 10.1157 0.912281 10.4807 0.547368C10.8456 0.182456 11.2947 0 11.828 0C12.3614 0 12.8105 0.182456 13.1754 0.547368C13.5403 0.912281 13.7228 1.3614 13.7228 1.89474C13.7228 2.42807 13.5403 2.87719 13.1754 3.24211C12.8105 3.60702 12.3614 3.78947 11.828 3.78947ZM15.7228 7.36842C15.1894 7.36842 14.7403 7.18597 14.3754 6.82105C14.0105 6.45614 13.828 6.00702 13.828 5.47368C13.828 4.94035 14.0105 4.49123 14.3754 4.12632C14.7403 3.7614 15.1894 3.57895 15.7228 3.57895C16.2561 3.57895 16.7052 3.7614 17.0701 4.12632C17.435 4.49123 17.6175 4.94035 17.6175 5.47368C17.6175 6.00702 17.435 6.45614 17.0701 6.82105C16.7052 7.18597 16.2561 7.36842 15.7228 7.36842ZM4.69118 16C4.10171 16 3.6175 15.7789 3.23855 15.3368C2.8596 14.8947 2.67013 14.3719 2.67013 13.7684C2.67013 13.1789 2.84907 12.6561 3.20697 12.2C3.56486 11.7439 3.94732 11.3053 4.35434 10.8842C4.66311 10.5754 4.95083 10.2491 5.2175 9.90526C5.48416 9.5614 5.73679 9.20702 5.97539 8.8421C6.38241 8.22456 6.83855 7.64912 7.34381 7.11579C7.84908 6.58246 8.46662 6.31579 9.19644 6.31579C9.92627 6.31579 10.5473 6.58246 11.0596 7.11579C11.5719 7.64912 12.0315 8.23158 12.4385 8.86316C12.6771 9.22807 12.9263 9.57895 13.1859 9.91579C13.4456 10.2526 13.7298 10.5754 14.0385 10.8842C14.4456 11.3053 14.828 11.7439 15.1859 12.2C15.5438 12.6561 15.7228 13.1789 15.7228 13.7684C15.7228 14.3719 15.5333 14.8947 15.1543 15.3368C14.7754 15.7789 14.2912 16 13.7017 16C12.9438 16 12.1929 15.9368 11.4491 15.8105C10.7052 15.6842 9.95434 15.6211 9.19644 15.6211C8.43855 15.6211 7.68767 15.6842 6.94381 15.8105C6.19995 15.9368 5.44907 16 4.69118 16Z" fill="#9AA0A6"/>
</svg>
