<svg width="24" height="24" viewBox="0 0 24 24" fill="none" xmlns="http://www.w3.org/2000/svg">
<path d="M16.01 14.46L13.39 17.08C10.64 15.59 8.38002 13.33 6.89002 10.58L9.51002 7.96C9.75002 7.72 9.85002 7.38 9.78002 7.06L9.13002 3.8C9.04002 3.34 8.63002 3 8.15002 3H4.00002C3.44002 3 2.97002 3.47 3.00002 4.03C3.17002 6.94 4.04002 9.66 5.43002 12.04C7.00002 14.73 9.24002 16.97 11.93 18.54C14.31 19.93 17.03 20.8 19.94 20.97C20.5 21 20.97 20.53 20.97 19.97V15.82C20.97 15.34 20.63 14.93 20.17 14.84L16.91 14.19C16.58 14.12 16.24 14.23 16.01 14.46Z" fill="#4696F0"/>
</svg>
