<svg width="100" height="100" viewBox="0 0 100 100" fill="none" xmlns="http://www.w3.org/2000/svg">
<circle cx="50" cy="50" r="50" fill="#E6F4FF"/>
<path fill-rule="evenodd" clip-rule="evenodd" d="M63.3333 38.3333H58.0499L54.9999 35H44.9999L41.9499 38.3333H36.6666C34.8333 38.3333 33.3333 39.8333 33.3333 41.6667V61.6667C33.3333 63.5 34.8333 65 36.6666 65H63.3333C65.1666 65 66.6666 63.5 66.6666 61.6667V41.6667C66.6666 39.8333 65.1666 38.3333 63.3333 38.3333ZM43.3333 51.6667C43.3333 47.9833 46.3166 45 49.9999 45C53.6833 45 56.6666 47.9833 56.6666 51.6667C56.6666 55.35 53.6833 58.3333 49.9999 58.3333C46.3166 58.3333 43.3333 55.35 43.3333 51.6667Z" fill="#4696F0"/>
</svg>
