<svg width="24" height="24" viewBox="0 0 24 24" fill="none" xmlns="http://www.w3.org/2000/svg">
<g id="edit-3">
<path id="Union" fill-rule="evenodd" clip-rule="evenodd" d="M17.2071 4.20733C17.4174 3.99705 17.7026 3.87891 18 3.87891C18.1473 3.87891 18.2931 3.90791 18.4291 3.96426C18.5652 4.02061 18.6888 4.10321 18.7929 4.20733C18.897 4.31146 18.9796 4.43507 19.036 4.57112C19.0923 4.70716 19.1213 4.85297 19.1213 5.00023C19.1213 5.14748 19.0923 5.29329 19.036 5.42934C18.9796 5.56538 18.897 5.689 18.7929 5.79312L6.48877 18.0973L4.37439 18.6259L4.90299 16.5115L17.2071 4.20733ZM18 1.87891C17.1722 1.87891 16.3783 2.20776 15.7929 2.79312L3.29291 15.2931C3.16476 15.4213 3.07384 15.5819 3.02988 15.7577L2.02988 19.7577C1.94468 20.0985 2.04453 20.459 2.29291 20.7073C2.54129 20.9557 2.90178 21.0556 3.24256 20.9704L7.24256 19.9704C7.41839 19.9264 7.57897 19.8355 7.70713 19.7073L20.2071 7.20733C20.497 6.91749 20.7269 6.5734 20.8837 6.1947C21.0406 5.81601 21.1213 5.41012 21.1213 5.00023C21.1213 4.59033 21.0406 4.18444 20.8837 3.80575C20.7269 3.42705 20.497 3.08296 20.2071 2.79312C19.9173 2.50328 19.5732 2.27336 19.1945 2.1165C18.8158 1.95964 18.4099 1.87891 18 1.87891ZM12 19C11.4477 19 11 19.4477 11 20C11 20.5523 11.4477 21 12 21H21C21.5523 21 22 20.5523 22 20C22 19.4477 21.5523 19 21 19H12Z" fill="white"/>
</g>
</svg>
