<svg width="20" height="20" viewBox="0 0 20 20" fill="none" xmlns="http://www.w3.org/2000/svg">
<path d="M12.917 9.16602C13.6073 9.16602 14.167 8.60637 14.167 7.91602C14.167 7.22566 13.6073 6.66602 12.917 6.66602C12.2266 6.66602 11.667 7.22566 11.667 7.91602C11.667 8.60637 12.2266 9.16602 12.917 9.16602Z" fill="#9AA0A6"/>
<path d="M7.08301 9.16602C7.77336 9.16602 8.33301 8.60637 8.33301 7.91602C8.33301 7.22566 7.77336 6.66602 7.08301 6.66602C6.39265 6.66602 5.83301 7.22566 5.83301 7.91602C5.83301 8.60637 6.39265 9.16602 7.08301 9.16602Z" fill="#9AA0A6"/>
<path d="M12.917 9.16602C13.6073 9.16602 14.167 8.60637 14.167 7.91602C14.167 7.22566 13.6073 6.66602 12.917 6.66602C12.2266 6.66602 11.667 7.22566 11.667 7.91602C11.667 8.60637 12.2266 9.16602 12.917 9.16602Z" fill="#9AA0A6"/>
<path d="M7.08301 9.16602C7.77336 9.16602 8.33301 8.60637 8.33301 7.91602C8.33301 7.22566 7.77336 6.66602 7.08301 6.66602C6.39265 6.66602 5.83301 7.22566 5.83301 7.91602C5.83301 8.60637 6.39265 9.16602 7.08301 9.16602Z" fill="#9AA0A6"/>
<path d="M9.99199 1.66602C5.39199 1.66602 1.66699 5.39935 1.66699 9.99935C1.66699 14.5993 5.39199 18.3327 9.99199 18.3327C14.6003 18.3327 18.3337 14.5993 18.3337 9.99935C18.3337 5.39935 14.6003 1.66602 9.99199 1.66602ZM10.0003 16.666C6.31699 16.666 3.33366 13.6827 3.33366 9.99935C3.33366 6.31602 6.31699 3.33268 10.0003 3.33268C13.6837 3.33268 16.667 6.31602 16.667 9.99935C16.667 13.6827 13.6837 16.666 10.0003 16.666ZM10.0003 14.5827C11.942 14.5827 13.6003 13.3743 14.267 11.666H12.8753C12.3003 12.6577 11.2337 13.3327 10.0003 13.3327C8.76699 13.3327 7.70866 12.6577 7.12533 11.666H5.73366C6.40033 13.3743 8.05866 14.5827 10.0003 14.5827Z" fill="#9AA0A6"/>
</svg>
