<svg width="28" height="28" viewBox="0 0 28 28" fill="none" xmlns="http://www.w3.org/2000/svg">
<rect width="28" height="28" rx="14" fill="#3D3D3D"/>
<path fill-rule="evenodd" clip-rule="evenodd" d="M14.0003 5.66663C9.40033 5.66663 5.66699 9.39996 5.66699 14C5.66699 18.6 9.40033 22.3333 14.0003 22.3333C18.6003 22.3333 22.3337 18.6 22.3337 14C22.3337 9.39996 18.6003 5.66663 14.0003 5.66663ZM13.167 9.83329V11.5H14.8337V9.83329H13.167ZM13.167 13.1666V18.1666H14.8337V13.1666H13.167ZM7.33366 14C7.33366 17.675 10.3253 20.6666 14.0003 20.6666C17.6753 20.6666 20.667 17.675 20.667 14C20.667 10.325 17.6753 7.33329 14.0003 7.33329C10.3253 7.33329 7.33366 10.325 7.33366 14Z" fill="#FEFEFE"/>
</svg>
