<svg width="28" height="28" viewBox="0 0 28 28" fill="none" xmlns="http://www.w3.org/2000/svg">
<rect width="28" height="28" rx="14" fill="#F2F2F2"/>
<path fill-rule="evenodd" clip-rule="evenodd" d="M13.9993 5.66602C9.39935 5.66602 5.66602 9.39935 5.66602 13.9993C5.66602 18.5993 9.39935 22.3327 13.9993 22.3327C18.5993 22.3327 22.3327 18.5993 22.3327 13.9993C22.3327 9.39935 18.5993 5.66602 13.9993 5.66602ZM13.166 9.83268V11.4993H14.8327V9.83268H13.166ZM13.166 13.166V18.166H14.8327V13.166H13.166ZM7.33268 13.9993C7.33268 17.6743 10.3243 20.666 13.9993 20.666C17.6743 20.666 20.666 17.6743 20.666 13.9993C20.666 10.3243 17.6743 7.33268 13.9993 7.33268C10.3243 7.33268 7.33268 10.3243 7.33268 13.9993Z" fill="#141414"/>
</svg>
