<svg width="16" height="16" viewBox="0 0 16 16" fill="none" xmlns="http://www.w3.org/2000/svg">
<path fill-rule="evenodd" clip-rule="evenodd" d="M7.99967 1.33398C4.31967 1.33398 1.33301 4.32065 1.33301 8.00065C1.33301 11.6807 4.31967 14.6673 7.99967 14.6673C11.6797 14.6673 14.6663 11.6807 14.6663 8.00065C14.6663 4.32065 11.6797 1.33398 7.99967 1.33398ZM7.33301 4.66732V6.00065H8.66634V4.66732H7.33301ZM7.33301 7.33398V11.334H8.66634V7.33398H7.33301ZM2.66634 8.00065C2.66634 10.9407 5.05967 13.334 7.99967 13.334C10.9397 13.334 13.333 10.9407 13.333 8.00065C13.333 5.06065 10.9397 2.66732 7.99967 2.66732C5.05967 2.66732 2.66634 5.06065 2.66634 8.00065Z" fill="#141414"/>
</svg>
