<svg width="20" height="20" viewBox="0 0 20 20" fill="none" xmlns="http://www.w3.org/2000/svg">
<path fill-rule="evenodd" clip-rule="evenodd" d="M10 1.66675C5.40002 1.66675 1.66669 5.40008 1.66669 10.0001C1.66669 14.6001 5.40002 18.3334 10 18.3334C14.6 18.3334 18.3334 14.6001 18.3334 10.0001C18.3334 5.40008 14.6 1.66675 10 1.66675ZM15.3 14.0251C14.1084 12.5751 11.2167 12.0834 10 12.0834C8.78335 12.0834 5.89169 12.5751 4.70002 14.0251C3.85002 12.9084 3.33335 11.5167 3.33335 10.0001C3.33335 6.32508 6.32502 3.33341 10 3.33341C13.675 3.33341 16.6667 6.32508 16.6667 10.0001C16.6667 11.5167 16.15 12.9084 15.3 14.0251ZM7.08335 7.91675C7.08335 6.30008 8.38335 5.00008 10 5.00008C11.6167 5.00008 12.9167 6.30008 12.9167 7.91675C12.9167 9.53342 11.6167 10.8334 10 10.8334C8.38335 10.8334 7.08335 9.53342 7.08335 7.91675Z" fill="#9BB4CF"/>
</svg>
