<svg width="19" height="16" viewBox="0 0 19 16" fill="none" xmlns="http://www.w3.org/2000/svg">
<path fill-rule="evenodd" clip-rule="evenodd" d="M16.3883 1.01C16.1883 0.42 15.6283 0 14.9683 0H3.96826C3.30826 0 2.75826 0.42 2.54826 1.01L0.468262 7V15C0.468262 15.55 0.918262 16 1.46826 16H2.46826C3.01826 16 3.46826 15.55 3.46826 15V14H15.4683V15C15.4683 15.55 15.9183 16 16.4683 16H17.4683C18.0183 16 18.4683 15.55 18.4683 15V7L16.3883 1.01ZM4.31826 2H14.6083L15.6883 5.11H3.23826L4.31826 2ZM2.46826 12H16.4683V7H2.46826V12ZM4.96826 11C5.79669 11 6.46826 10.3284 6.46826 9.5C6.46826 8.67157 5.79669 8 4.96826 8C4.13983 8 3.46826 8.67157 3.46826 9.5C3.46826 10.3284 4.13983 11 4.96826 11ZM15.4683 9.5C15.4683 10.3284 14.7967 11 13.9683 11C13.1398 11 12.4683 10.3284 12.4683 9.5C12.4683 8.67157 13.1398 8 13.9683 8C14.7967 8 15.4683 8.67157 15.4683 9.5Z" fill="#9AA0A6"/>
</svg>
