<svg width="20" height="20" viewBox="0 0 20 20" fill="none" xmlns="http://www.w3.org/2000/svg">
<path d="M16.1917 10.8167C16.225 10.55 16.25 10.2834 16.25 10C16.25 9.71669 16.225 9.45002 16.1917 9.18335L17.95 7.80835C18.1083 7.68335 18.15 7.45835 18.05 7.27502L16.3833 4.39169C16.2833 4.20835 16.0583 4.14169 15.875 4.20835L13.8 5.04169C13.3667 4.70835 12.9 4.43335 12.3917 4.22502L12.075 2.01669C12.05 1.81669 11.875 1.66669 11.6667 1.66669H8.33332C8.12499 1.66669 7.94999 1.81669 7.92499 2.01669L7.60832 4.22502C7.09999 4.43335 6.63332 4.71669 6.19999 5.04169L4.12499 4.20835C3.93332 4.13335 3.71666 4.20835 3.61666 4.39169L1.94999 7.27502C1.84165 7.45835 1.89165 7.68335 2.04999 7.80835L3.80832 9.18335C3.77499 9.45002 3.74999 9.72502 3.74999 10C3.74999 10.275 3.77499 10.55 3.80832 10.8167L2.04999 12.1917C1.89165 12.3167 1.84999 12.5417 1.94999 12.725L3.61666 15.6084C3.71666 15.7917 3.94165 15.8584 4.12499 15.7917L6.19999 14.9584C6.63332 15.2917 7.09999 15.5667 7.60832 15.775L7.92499 17.9834C7.94999 18.1834 8.12499 18.3334 8.33332 18.3334H11.6667C11.875 18.3334 12.05 18.1834 12.075 17.9834L12.3917 15.775C12.9 15.5667 13.3667 15.2834 13.8 14.9584L15.875 15.7917C16.0667 15.8667 16.2833 15.7917 16.3833 15.6084L18.05 12.725C18.15 12.5417 18.1083 12.3167 17.95 12.1917L16.1917 10.8167ZM9.99999 12.9167C8.39165 12.9167 7.08332 11.6084 7.08332 10C7.08332 8.39169 8.39165 7.08335 9.99999 7.08335C11.6083 7.08335 12.9167 8.39169 12.9167 10C12.9167 11.6084 11.6083 12.9167 9.99999 12.9167Z" fill="#9BB4CF"/>
</svg>
