<svg width="16" height="16" viewBox="0 0 16 16" fill="none" xmlns="http://www.w3.org/2000/svg">
<path fill-rule="evenodd" clip-rule="evenodd" d="M7.18079 12.6533C7.18079 12.9842 7.31424 13.3016 7.55178 13.5356C7.78933 13.7696 8.11151 13.9011 8.44745 13.9011C8.78339 13.9011 9.10557 13.7696 9.34312 13.5356C9.58067 13.3016 9.71412 12.9842 9.71412 12.6533H7.18079Z" fill="#141414"/>
<path fill-rule="evenodd" clip-rule="evenodd" d="M12.2562 7.02389V9.63199L11.3896 8.77826L10.9896 8.38423L7.18004 4.63156L6.22766 3.6934C6.60418 3.40654 7.0347 3.19609 7.49433 3.07421V2.65203C7.49433 2.40322 7.59467 2.16459 7.77327 1.98865C7.95188 1.81271 8.19412 1.71387 8.44671 1.71387C8.6993 1.71387 8.94154 1.81271 9.12014 1.98865C9.29875 2.16459 9.39909 2.40322 9.39909 2.65203V3.07421C10.267 3.30305 11.0269 3.82246 11.5483 4.54321C12.0697 5.26397 12.32 6.14109 12.2562 7.02389Z" fill="#141414"/>
<path fill-rule="evenodd" clip-rule="evenodd" d="M14.2857 13.4033L13.3905 14.2852L11.0952 12.0336H3.37144V10.7764H4.6381V7.02376C4.63945 6.61888 4.69062 6.21565 4.79048 5.8229L1.71429 2.78324L2.60953 1.90137L14.2857 13.4033Z" fill="#141414"/>
</svg>
