<svg width="16" height="16" viewBox="0 0 16 16" fill="none" xmlns="http://www.w3.org/2000/svg">
<path fill-rule="evenodd" clip-rule="evenodd" d="M7.18066 12.6528C7.18066 12.9838 7.31412 13.3011 7.55166 13.5351C7.78921 13.7691 8.11139 13.9006 8.44733 13.9006C8.78327 13.9006 9.10545 13.7691 9.343 13.5351C9.58055 13.3011 9.714 12.9838 9.714 12.6528H7.18066Z" fill="#FEFEFE"/>
<path fill-rule="evenodd" clip-rule="evenodd" d="M12.2561 7.02438V9.63248L11.3894 8.77875L10.9894 8.38472L7.17992 4.63205L6.22754 3.69389C6.60405 3.40703 7.03458 3.19658 7.49421 3.0747V2.65252C7.49421 2.4037 7.59455 2.16508 7.77315 1.98914C7.95176 1.8132 8.194 1.71436 8.44659 1.71436C8.69917 1.71436 8.94141 1.8132 9.12002 1.98914C9.29863 2.16508 9.39897 2.4037 9.39897 2.65252V3.0747C10.2669 3.30353 11.0268 3.82294 11.5481 4.5437C12.0695 5.26446 12.3199 6.14158 12.2561 7.02438Z" fill="#FEFEFE"/>
<path fill-rule="evenodd" clip-rule="evenodd" d="M14.2853 13.4038L13.3901 14.2857L11.0948 12.0341H3.37101V10.7769H4.63768V7.02424C4.63902 6.61936 4.69019 6.21614 4.79006 5.82339L1.71387 2.78373L2.60911 1.90186L14.2853 13.4038Z" fill="#FEFEFE"/>
</svg>
