<svg width="12" height="16" viewBox="0 0 12 16" fill="none" xmlns="http://www.w3.org/2000/svg">
<path fill-rule="evenodd" clip-rule="evenodd" d="M5.99307 0C2.90507 0 0.393066 2.512 0.393066 5.6C0.393066 7.504 1.34507 9.176 2.79307 10.192V12C2.79307 12.44 3.15307 12.8 3.59307 12.8H8.39307C8.83307 12.8 9.19307 12.44 9.19307 12V10.192C10.6411 9.176 11.5931 7.504 11.5931 5.6C11.5931 2.512 9.08107 0 5.99307 0ZM3.59307 15.2C3.59307 15.64 3.95307 16 4.39307 16H7.59307C8.03307 16 8.39307 15.64 8.39307 15.2V14.4H3.59307V15.2ZM7.59307 9.36L8.27307 8.88C9.35307 8.128 9.99307 6.904 9.99307 5.6C9.99307 3.392 8.20107 1.6 5.99307 1.6C3.78507 1.6 1.99307 3.392 1.99307 5.6C1.99307 6.904 2.63307 8.128 3.71307 8.88L4.39307 9.36V11.2H7.59307V9.36Z" fill="#9AA0A6"/>
</svg>
