<svg width="24" height="24" viewBox="0 0 24 24" fill="none" xmlns="http://www.w3.org/2000/svg">
<path d="M14.8996 2.4V1.9H14.3996H9.59961H9.09961V2.4V8.4C9.09961 9.61196 8.71464 10.754 8.00072 11.6985L7.39495 12.5H8.39961H15.5996H16.5996L15.9996 11.7C15.3063 10.7756 14.8996 9.6322 14.8996 8.4V2.4ZM7.69961 2.4V1.9H7.19961H5.99961C5.61575 1.9 5.29961 1.58386 5.29961 1.2C5.29961 0.816142 5.61575 0.5 5.99961 0.5H17.9996C18.3835 0.5 18.6996 0.816142 18.6996 1.2C18.6996 1.58386 18.3835 1.9 17.9996 1.9H16.7996H16.2996V2.4V8.4C16.2996 10.4989 17.8682 12.2241 19.8996 12.47V13.9H13.1636H12.6636V14.4V22.5929L11.9636 23.2929L11.2636 22.5929V14.4V13.9H10.7636H4.09961V12.47C6.131 12.2241 7.69961 10.4989 7.69961 8.4V2.4Z" fill="white" stroke="white"/>
</svg>
