<svg width="28" height="28" viewBox="0 0 28 28" fill="none" xmlns="http://www.w3.org/2000/svg">
<circle cx="14" cy="14" r="14" fill="#4696F0"/>
<path d="M21.509 14.7166L10.3501 19.8985C9.64978 20.2318 8.84049 19.6922 9.02725 19.0335L10.14 15.1927L13.4083 14.5023C13.5234 14.4813 13.6275 14.4197 13.7025 14.3284C13.7775 14.237 13.8186 14.1216 13.8186 14.0024C13.8186 13.8832 13.7775 13.7678 13.7025 13.6764C13.6275 13.585 13.5234 13.5234 13.4083 13.5024L10.1322 12.82L9.06616 8.9712C8.88718 8.30461 9.71204 7.77293 10.4046 8.09829L21.5245 13.3358C21.665 13.3869 21.7863 13.4814 21.8715 13.6062C21.9568 13.731 22.0017 13.8798 22 14.0318C21.9982 14.1839 21.95 14.3316 21.862 14.4544C21.774 14.5771 21.6505 14.6688 21.509 14.7166Z" fill="white" stroke="white" stroke-width="0.92" stroke-linecap="round" stroke-linejoin="round"/>
</svg>
