<svg width="17" height="16" viewBox="0 0 17 16" fill="none" xmlns="http://www.w3.org/2000/svg">
<path d="M8.54297 0C4.12697 0 0.542969 3.584 0.542969 8C0.542969 12.416 4.12697 16 8.54297 16C12.959 16 16.543 12.416 16.543 8C16.543 3.584 12.959 0 8.54297 0ZM9.34297 2.64L10.423 1.88C11.879 2.328 13.119 3.288 13.927 4.552L13.615 5.624L12.535 5.992L9.34297 3.76V2.64ZM6.66297 1.88L7.74297 2.64V3.76L4.55097 5.992L3.47097 5.624L3.15897 4.552C3.96697 3.296 5.20697 2.336 6.66297 1.88ZM4.60697 12.088L3.69497 12.168C2.72697 11.048 2.14297 9.592 2.14297 8C2.14297 7.904 2.15097 7.816 2.15897 7.72L2.95897 7.136L4.06297 7.52L5.23097 10.992L4.60697 12.088ZM10.543 14.072C9.91097 14.28 9.23897 14.4 8.54297 14.4C7.84697 14.4 7.17497 14.28 6.54297 14.072L5.99097 12.88L6.50297 12H10.591L11.103 12.888L10.543 14.072ZM10.359 10.4H6.72697L5.64697 7.184L8.54297 5.152L11.447 7.184L10.359 10.4ZM13.391 12.168L12.479 12.088L11.847 10.992L13.015 7.52L14.127 7.144L14.927 7.728C14.935 7.816 14.943 7.904 14.943 8C14.943 9.592 14.359 11.048 13.391 12.168Z" fill="#9AA0A6"/>
</svg>
