<svg width="72" height="72" viewBox="0 0 72 72" fill="none" xmlns="http://www.w3.org/2000/svg">
<rect width="72" height="72" rx="10" fill="white"/>
<path d="M38.5 12.5H28.5C27.125 12.5 26.0125 13.625 26.0125 15L26 35C26 36.375 27.1125 37.5 28.4875 37.5H43.5C44.875 37.5 46 36.375 46 35V20L38.5 12.5ZM37.25 21.25V14.375L44.125 21.25H37.25Z" fill="#4696F0"/>
<path d="M24.688 52.908V55.464H28.744V56.784H24.688V60H23.128V51.6H29.26V52.908H24.688ZM30.5074 53.592H32.0074V60H30.5074V53.592ZM31.2634 52.536C30.9914 52.536 30.7634 52.452 30.5794 52.284C30.3954 52.108 30.3034 51.892 30.3034 51.636C30.3034 51.38 30.3954 51.168 30.5794 51C30.7634 50.824 30.9914 50.736 31.2634 50.736C31.5354 50.736 31.7634 50.82 31.9474 50.988C32.1314 51.148 32.2234 51.352 32.2234 51.6C32.2234 51.864 32.1314 52.088 31.9474 52.272C31.7714 52.448 31.5434 52.536 31.2634 52.536ZM33.9762 51.096H35.4762V60H33.9762V51.096ZM43.4689 56.832C43.4689 56.936 43.4609 57.084 43.4449 57.276H38.4169C38.5049 57.748 38.7329 58.124 39.1009 58.404C39.4769 58.676 39.9409 58.812 40.4929 58.812C41.1969 58.812 41.7769 58.58 42.2329 58.116L43.0369 59.04C42.7489 59.384 42.3849 59.644 41.9449 59.82C41.5049 59.996 41.0089 60.084 40.4569 60.084C39.7529 60.084 39.1329 59.944 38.5969 59.664C38.0609 59.384 37.6449 58.996 37.3489 58.5C37.0609 57.996 36.9169 57.428 36.9169 56.796C36.9169 56.172 37.0569 55.612 37.3369 55.116C37.6249 54.612 38.0209 54.22 38.5249 53.94C39.0289 53.66 39.5969 53.52 40.2289 53.52C40.8529 53.52 41.4089 53.66 41.8969 53.94C42.3929 54.212 42.7769 54.6 43.0489 55.104C43.3289 55.6 43.4689 56.176 43.4689 56.832ZM40.2289 54.72C39.7489 54.72 39.3409 54.864 39.0049 55.152C38.6769 55.432 38.4769 55.808 38.4049 56.28H42.0409C41.9769 55.816 41.7809 55.44 41.4529 55.152C41.1249 54.864 40.7169 54.72 40.2289 54.72ZM46.8898 60.084C46.3698 60.084 45.8618 60.016 45.3658 59.88C44.8698 59.744 44.4738 59.572 44.1778 59.364L44.7538 58.224C45.0418 58.416 45.3858 58.572 45.7858 58.692C46.1938 58.804 46.5938 58.86 46.9858 58.86C47.8818 58.86 48.3298 58.624 48.3298 58.152C48.3298 57.928 48.2138 57.772 47.9818 57.684C47.7578 57.596 47.3938 57.512 46.8898 57.432C46.3618 57.352 45.9298 57.26 45.5938 57.156C45.2658 57.052 44.9778 56.872 44.7298 56.616C44.4898 56.352 44.3698 55.988 44.3698 55.524C44.3698 54.916 44.6218 54.432 45.1258 54.072C45.6378 53.704 46.3258 53.52 47.1898 53.52C47.6298 53.52 48.0698 53.572 48.5098 53.676C48.9498 53.772 49.3098 53.904 49.5898 54.072L49.0138 55.212C48.4698 54.892 47.8578 54.732 47.1778 54.732C46.7378 54.732 46.4018 54.8 46.1698 54.936C45.9458 55.064 45.8338 55.236 45.8338 55.452C45.8338 55.692 45.9538 55.864 46.1938 55.968C46.4418 56.064 46.8218 56.156 47.3338 56.244C47.8458 56.324 48.2658 56.416 48.5938 56.52C48.9218 56.624 49.2018 56.8 49.4338 57.048C49.6738 57.296 49.7938 57.648 49.7938 58.104C49.7938 58.704 49.5338 59.184 49.0138 59.544C48.4938 59.904 47.7858 60.084 46.8898 60.084Z" fill="#4696F0"/>
</svg>
