<svg width="72" height="72" viewBox="0 0 72 72" fill="none" xmlns="http://www.w3.org/2000/svg">
<path fill-rule="evenodd" clip-rule="evenodd" d="M18.1788 28.6754C18.1137 29.3064 18.0811 29.9481 18.0811 30.6005C18.0811 34.8358 19.1978 38.1859 21.4176 40.6644C23.6373 43.1429 26.2521 44.9133 29.2617 46.0028C32.2714 47.0922 36.03 48.1136 40.5377 49.0533C44.0512 49.775 46.5706 50.4423 48.0958 51.0552C49.6347 51.668 50.3973 52.5804 50.3973 53.8061C50.3973 54.8683 49.8117 55.6582 48.6406 56.1893C47.4694 56.7204 45.522 56.9791 42.7983 56.9791C39.6252 56.9791 36.3024 56.5025 32.857 55.522C29.3979 54.5551 26.2793 53.2613 23.5012 51.6408L17.155 65.9944C20.1102 67.8329 23.8825 69.2901 28.4719 70.3795H28.4855C33.0748 71.4554 37.7868 72.0001 42.6349 72.0001C48.4771 72.0001 53.4478 71.1285 57.5333 69.3718C61.6188 67.615 64.6966 65.2591 66.7529 62.2767C68.8093 59.2942 69.8443 55.9714 69.8443 52.2944C69.8443 48.0591 68.7139 44.7227 66.4669 42.2714C64.2199 39.8337 61.5643 38.0633 58.5002 36.9738C55.4361 35.898 51.6774 34.9311 47.2243 34.1004C43.7652 33.4331 41.2867 32.8066 39.7887 32.221C38.277 31.6355 37.528 30.7639 37.528 29.5927C37.528 27.1414 40.0066 25.9158 45.127 25.9158C50.2475 25.9158 55.6676 27.3729 61.4009 30.26L67.3249 15.988C64.3697 14.313 60.9651 13.0465 57.0975 12.1885C53.2299 11.3306 49.2942 10.8948 45.2905 10.8948C39.4482 10.8948 34.4775 11.7527 30.392 13.4823C30.3493 13.5004 30.3066 13.5185 30.2641 13.5368C30.8799 14.9006 31.2228 16.4129 31.2228 18.0034C31.2228 19.9236 30.6917 21.8166 29.7248 23.4644L31.1956 27.8903C31.2909 28.1763 31.0185 28.4487 30.7325 28.3533L26.4972 26.9371C24.686 28.1899 22.5343 28.8845 20.3145 28.8845C19.5835 28.8845 18.8693 28.8126 18.1788 28.6754Z" fill="url(#paint0_linear_8470_50935)"/>
<path d="M13.0882 0.0135939C19.1072 0.0135939 24.007 4.89278 24.007 10.8864C24.007 12.8028 23.4747 14.6919 22.5056 16.3364L23.9797 20.7535C24.0752 21.0389 23.8023 21.3107 23.5156 21.2156L19.271 19.8022C17.4557 21.0525 15.2992 21.7457 13.0745 21.7457C7.04192 21.7457 2.15576 16.8801 2.15576 10.8728C2.15576 4.86559 7.04192 0 13.0745 0L13.0882 0.0135939Z" fill="#62C18D"/>
<defs>
<linearGradient id="paint0_linear_8470_50935" x1="29.9055" y1="26.5414" x2="66.5922" y2="70.0717" gradientUnits="userSpaceOnUse">
<stop stop-color="#66C687"/>
<stop offset="1" stop-color="#2A7FD4"/>
</linearGradient>
</defs>
</svg>
