<svg width="83" height="83" viewBox="0 0 83 83" fill="none" xmlns="http://www.w3.org/2000/svg">
<path fill-rule="evenodd" clip-rule="evenodd" d="M16.1788 28.7304C16.1137 29.3614 16.0811 30.003 16.0811 30.6554C16.0811 34.8907 17.1978 38.2408 19.4176 40.7193C21.6373 43.1978 24.2521 44.9682 27.2617 46.0577C30.2714 47.1472 34.03 48.1685 38.5377 49.1082C42.0512 49.83 44.5706 50.4973 46.0958 51.1101C47.6347 51.7229 48.3973 52.6353 48.3973 53.861C48.3973 54.9232 47.8117 55.7131 46.6406 56.2442C45.4694 56.7753 43.522 57.0341 40.7983 57.0341C37.6252 57.0341 34.3024 56.5574 30.857 55.5769C27.3979 54.61 24.2793 53.3163 21.5012 51.6957L15.155 66.0494C18.1102 67.8878 21.8825 69.345 26.4719 70.4345H26.4855C31.0748 71.5103 35.7868 72.0551 40.6349 72.0551C46.4771 72.0551 51.4478 71.1835 55.5333 69.4267C59.6188 67.6699 62.6966 65.314 64.7529 62.3316C66.8093 59.3492 67.8443 56.0263 67.8443 52.3494C67.8443 48.1141 66.7139 44.7776 64.4669 42.3263C62.2199 39.8886 59.5643 38.1182 56.5002 37.0288C53.4361 35.9529 49.6774 34.986 45.2243 34.1553C41.7652 33.488 39.2867 32.8616 37.7887 32.276C36.277 31.6904 35.528 30.8188 35.528 29.6476C35.528 27.1964 38.0066 25.9707 43.127 25.9707C48.2475 25.9707 53.6676 27.4279 59.4009 30.3149L65.3249 16.043C62.3697 14.3679 58.9651 13.1014 55.0975 12.2434C51.2299 11.3855 47.2942 10.9497 43.2905 10.9497C37.4482 10.9497 32.4775 11.8077 28.392 13.5372C28.3493 13.5553 28.3066 13.5735 28.2641 13.5917C28.8799 14.9555 29.2228 16.4678 29.2228 18.0584C29.2228 19.9786 28.6917 21.8715 27.7248 23.5193L29.1956 27.9453C29.2909 28.2312 29.0185 28.5036 28.7325 28.4083L24.4972 26.992C22.686 28.2449 20.5343 28.9394 18.3145 28.9394C17.5835 28.9394 16.8693 28.8675 16.1788 28.7304Z" fill="url(#paint0_linear_8477_50941)"/>
<path d="M11.0882 0.0686477C17.1072 0.0686477 22.007 4.94783 22.007 10.9415C22.007 12.8578 21.4747 14.747 20.5056 16.3915L21.9797 20.8086C22.0752 21.094 21.8023 21.3658 21.5156 21.2707L17.271 19.8572C15.4557 21.1076 13.2992 21.8007 11.0745 21.8007C5.04192 21.8007 0.155762 16.9351 0.155762 10.9279C0.155762 4.92065 5.04192 0.0550537 11.0745 0.0550537L11.0882 0.0686477Z" fill="#62C18D"/>
<defs>
<linearGradient id="paint0_linear_8477_50941" x1="27.9055" y1="26.5963" x2="64.5922" y2="70.1267" gradientUnits="userSpaceOnUse">
<stop stop-color="#66C687"/>
<stop offset="1" stop-color="#2A7FD4"/>
</linearGradient>
</defs>
</svg>
