<svg width="17" height="13" viewBox="0 0 17 13" fill="none" xmlns="http://www.w3.org/2000/svg">
<path fill-rule="evenodd" clip-rule="evenodd" d="M8.48575 3.13482C8.64273 3.04643 8.81985 3 9 3C9.18015 3 9.35727 3.04643 9.51425 3.13482C9.67124 3.2232 9.80279 3.35055 9.89622 3.50458L9.89723 3.50624L12.8567 8.44684L12.8595 8.45166C12.9511 8.61016 12.9995 8.78987 13 8.9729C13.0005 9.15593 12.9531 9.3359 12.8625 9.49491C12.7718 9.65393 12.6411 9.78643 12.4834 9.87926C12.3256 9.97208 12.1463 10.022 11.9633 10.024L11.9595 10.024L6.0367 10.024C5.85368 10.022 5.67437 9.97208 5.51663 9.87926C5.35888 9.78643 5.22819 9.65393 5.13755 9.49491C5.04691 9.3359 4.99949 9.15593 5 8.9729C5.00052 8.78987 5.04895 8.61016 5.14047 8.45166L5.14331 8.44684L8.10377 3.50458C8.1972 3.35055 8.32876 3.2232 8.48575 3.13482ZM9 3.69881C8.93995 3.69881 8.88091 3.71429 8.82858 3.74375C8.77649 3.77308 8.7328 3.81528 8.70168 3.86631L5.74448 8.80312C5.71472 8.85546 5.69898 8.91462 5.69881 8.97485C5.69864 9.03586 5.71445 9.09586 5.74466 9.14886C5.77487 9.20186 5.81844 9.24603 5.87102 9.27697C5.92314 9.30764 5.98232 9.32426 6.04277 9.3252H11.9572C12.0177 9.32426 12.0769 9.30764 12.129 9.27697C12.1816 9.24603 12.2251 9.20186 12.2553 9.14886C12.2856 9.09586 12.3014 9.03586 12.3012 8.97485C12.301 8.91463 12.2853 8.85548 12.2555 8.80314L9.29874 3.867L9.29832 3.86631C9.2672 3.81528 9.22351 3.77308 9.17142 3.74375C9.11909 3.71429 9.06005 3.69881 9 3.69881ZM8.99974 5.13226C9.19271 5.13226 9.34914 5.28869 9.34914 5.48167V6.87929C9.34914 7.07226 9.19271 7.22869 8.99974 7.22869C8.80677 7.22869 8.65033 7.07226 8.65033 6.87929V5.48167C8.65033 5.28869 8.80677 5.13226 8.99974 5.13226ZM8.99974 7.9275C8.80677 7.9275 8.65033 8.08394 8.65033 8.27691C8.65033 8.46988 8.80677 8.62631 8.99974 8.62631H9.00323C9.1962 8.62631 9.35264 8.46988 9.35264 8.27691C9.35264 8.08394 9.1962 7.9275 9.00323 7.9275H8.99974Z" fill="#E84E4E"/>
</svg>
