<svg width="14" height="14" viewBox="0 0 14 14" fill="none" xmlns="http://www.w3.org/2000/svg">
<g id="Frame">
<path id="Vector" d="M10.747 1.64844H3.25286C2.82695 1.64844 2.41849 1.81763 2.11732 2.11879C1.81616 2.41995 1.64697 2.82841 1.64697 3.25432V10.7484C1.64697 11.1743 1.81616 11.5828 2.11732 11.884C2.41849 12.1851 2.82695 12.3543 3.25286 12.3543H10.747C11.1729 12.3543 11.5813 12.1851 11.8825 11.884C12.1837 11.5828 12.3529 11.1743 12.3529 10.7484V3.25432C12.3529 2.82841 12.1837 2.41995 11.8825 2.11879C11.5813 1.81763 11.1729 1.64844 10.747 1.64844ZM5.92933 6.19844H4.0558V7.80432H5.12639V7.00138H5.92933V8.07197C5.92933 8.21394 5.87293 8.35009 5.77254 8.45048C5.67215 8.55086 5.536 8.60726 5.39403 8.60726H3.78815C3.64618 8.60726 3.51003 8.55086 3.40964 8.45048C3.30925 8.35009 3.25286 8.21394 3.25286 8.07197V5.93079C3.25286 5.78882 3.30925 5.65267 3.40964 5.55228C3.51003 5.45189 3.64618 5.3955 3.78815 5.3955H5.39403C5.536 5.3955 5.67215 5.45189 5.77254 5.55228C5.87293 5.65267 5.92933 5.78882 5.92933 5.93079V6.19844ZM7.53521 8.60726H6.73227V5.3955H7.53521V8.60726ZM10.747 6.19844H9.14109V6.73373H10.2117V7.53667H9.14109V8.60726H8.33815V5.3955H10.747V6.19844Z" fill="#9AA0A6"/>
</g>
</svg>
