<svg width="17" height="16" viewBox="0 0 17 16" fill="none" xmlns="http://www.w3.org/2000/svg">
<path fill-rule="evenodd" clip-rule="evenodd" d="M13.2142 0V2.90909H16.8506L15.6506 14.9309C15.5779 15.5273 15.076 16 14.4651 16H13.2142V14.5455H14.2251L15.2433 4.36364H8.29059L8.12331 2.90909H11.7597V0H13.2142ZM0.850586 10.1818C0.850586 7.27273 3.57786 5.81091 6.30513 5.81091C9.0324 5.81091 11.7597 7.27273 11.7597 10.1818H0.850586ZM1.58513 15.9927C1.17786 15.9927 0.850586 15.6655 0.850586 15.2582V14.5455H11.7669V15.2582C11.7669 15.6655 11.4397 15.9927 11.0324 15.9927H1.58513ZM0.850586 11.6364H11.7597V13.0909H0.850586V11.6364Z" fill="#9AA0A6"/>
</svg>
