<svg width="28" height="28" viewBox="0 0 28 28" fill="none" xmlns="http://www.w3.org/2000/svg">
<path fill-rule="evenodd" clip-rule="evenodd" d="M14 28C21.732 28 28 21.732 28 14C28 6.26801 21.732 0 14 0C6.26801 0 0 6.26801 0 14C0 21.732 6.26801 28 14 28ZM10.3501 19.8985L21.509 14.7166C21.6505 14.6688 21.774 14.5771 21.862 14.4544C21.95 14.3316 21.9982 14.1839 22 14.0318C22.0017 13.8798 21.9568 13.731 21.8715 13.6062C21.7863 13.4814 21.665 13.3869 21.5245 13.3358L10.4046 8.09829C9.71204 7.77293 8.88718 8.30461 9.06616 8.9712L10.1322 12.82L13.4083 13.5024C13.5234 13.5234 13.6275 13.585 13.7025 13.6764C13.7775 13.7678 13.8186 13.8832 13.8186 14.0024C13.8186 14.1216 13.7775 14.237 13.7025 14.3284C13.6275 14.4197 13.5234 14.4813 13.4083 14.5023L10.14 15.1927L9.02725 19.0335C8.84049 19.6922 9.64978 20.2318 10.3501 19.8985Z" fill="white"/>
</svg>
