<svg width="12" height="12" viewBox="0 0 12 12" fill="none" xmlns="http://www.w3.org/2000/svg">
<path d="M9.21211 1.41211H2.78858C2.42352 1.41211 2.07341 1.55713 1.81527 1.81527C1.55713 2.07341 1.41211 2.42352 1.41211 2.78858V9.21211C1.41211 9.57717 1.55713 9.92728 1.81527 10.1854C2.07341 10.4436 2.42352 10.5886 2.78858 10.5886H9.21211C9.57717 10.5886 9.92728 10.4436 10.1854 10.1854C10.4436 9.92728 10.5886 9.57717 10.5886 9.21211V2.78858C10.5886 2.42352 10.4436 2.07341 10.1854 1.81527C9.92728 1.55713 9.57717 1.41211 9.21211 1.41211ZM5.0827 5.31211H3.47682V6.68858H4.39446V6.00034H5.0827V6.91799C5.0827 7.03968 5.03436 7.15638 4.94831 7.24243C4.86226 7.32847 4.74556 7.37681 4.62388 7.37681H3.2474C3.12572 7.37681 3.00901 7.32847 2.92297 7.24243C2.83692 7.15638 2.78858 7.03968 2.78858 6.91799V5.0827C2.78858 4.96101 2.83692 4.84431 2.92297 4.75826C3.00901 4.67221 3.12572 4.62387 3.2474 4.62387H4.62388C4.74556 4.62387 4.86226 4.67221 4.94831 4.75826C5.03436 4.84431 5.0827 4.96101 5.0827 5.0827V5.31211ZM6.45917 7.37681H5.77093V4.62387H6.45917V7.37681ZM9.21211 5.31211H7.83564V5.77093H8.75329V6.45917H7.83564V7.37681H7.1474V4.62387H9.21211V5.31211Z" fill="#141414"/>
</svg>
