<svg width="14" height="14" viewBox="0 0 14 14" fill="none" xmlns="http://www.w3.org/2000/svg">
<g id="mic_none_24px">
<g id="ic_mic_none_24px">
<path d="M8.74996 6.41602C8.74996 7.38435 7.96829 8.16602 6.99996 8.16602C6.03163 8.16602 5.24996 7.38435 5.24996 6.41602V2.91602C5.24996 1.94768 6.03163 1.16602 6.99996 1.16602C7.96829 1.16602 8.74996 1.94768 8.74996 2.91602V6.41602Z" fill="#9AA0A6"/>
<path d="M9.91663 6.41602C9.91663 8.02602 8.60996 9.33268 6.99996 9.33268C5.38996 9.33268 4.08329 8.02602 4.08329 6.41602H2.91663C2.91663 8.47518 4.43913 10.1668 6.41663 10.4527V12.2493H7.58329V10.4527C9.56079 10.1668 11.0833 8.47518 11.0833 6.41602H9.91663Z" fill="#9AA0A6"/>
</g>
</g>
</svg>
