<svg width="16" height="16" viewBox="0 0 16 16" fill="none" xmlns="http://www.w3.org/2000/svg">
<path d="M14.1736 12.0004L9.15358 3.32711C8.64024 2.44044 7.36024 2.44044 6.84691 3.32711L1.82691 12.0004C1.31358 12.8871 1.95358 14.0004 2.98024 14.0004H13.0202C14.0469 14.0004 14.6869 12.8871 14.1736 12.0004ZM2.98024 12.6671L8.00024 3.99378L13.0202 12.6671H2.98024Z" fill="#FF4133"/>
<path d="M7.33358 7.33378V8.66711C7.33358 9.03378 7.63358 9.33378 8.00024 9.33378C8.36691 9.33378 8.66691 9.03378 8.66691 8.66711V7.33378C8.66691 6.96711 8.36691 6.66711 8.00024 6.66711C7.63358 6.66711 7.33358 6.96711 7.33358 7.33378Z" fill="#FF4133"/>
<path d="M8.00024 12.0004C8.36843 12.0004 8.66691 11.702 8.66691 11.3338C8.66691 10.9656 8.36843 10.6671 8.00024 10.6671C7.63205 10.6671 7.33358 10.9656 7.33358 11.3338C7.33358 11.702 7.63205 12.0004 8.00024 12.0004Z" fill="#FF4133"/>
</svg>
