<svg width="360" height="724" viewBox="0 0 360 724" fill="none" xmlns="http://www.w3.org/2000/svg">
<path fill-rule="evenodd" clip-rule="evenodd" d="M219.9 313C215.9 326.6 221.3 339.4 236.1 351.4C250.8 363.6 276.2 379.5 312.3 399.4C329.3 408.7 345.2 417.8 360 426.8V724H0V530.3C23 554.3 49.8 576.4 80 596.6C114.9 620.1 150.3 637.4 185.5 648.6C215.8 658.2 238.3 662.1 253.1 660.1C267.9 658 277.1 651 280.7 638.7C284.9 624.5 279.5 611.3 264.5 598.8C249.7 586.2 224 569.6 187.4 548.9C140.6 522.1 102.3 496.9 72.6 473.7C42.9 450.5 19.8 420.8 3.5 384.2C2.3 381.4 1.1 378.6 0.1 375.8V257.8C0.3 257.2 0.4 256.6 0.6 255.9C2.8 248.3 5.3 241.1 8.2 234C15.4 238 23.1 241.4 31.2 243.9C55.8 251.7 82.1 251.4 106.4 243.3L148.6 274.7C151.4 276.8 155.4 274.6 155.3 271L154 214.6C170.4 199 182.7 179 189.2 156.7C194.6 138.2 195.9 119.5 193.7 101.6C194.2 101.5 194.7 101.5 195.3 101.4C244 96.1 299 102.8 360 121.2V314.7C345.7 307.7 331.2 301.9 316.7 297.3C259.9 279.2 228.2 284.6 219.9 313Z" fill="url(#paint0_linear_537_7019)" fill-opacity="0.05"/>
<path d="M133.1 49.3C126.6 71.5 114.2 91.7 97.8001 107.4L99.2001 164C99.3001 167.6 95.3001 169.8 92.5001 167.7L50.2001 136.2C34.0001 141.6 17.0001 143.6 0.100098 142V0H138.3C139.5 16.2 137.9 32.8 133.1 49.3Z" fill="url(#paint1_linear_537_7019)" fill-opacity="0.05"/>
<defs>
<linearGradient id="paint0_linear_537_7019" x1="283.702" y1="748.293" x2="88.4696" y2="135.124" gradientUnits="userSpaceOnUse">
<stop stop-color="#4696F0"/>
<stop offset="1" stop-color="#43B4DB"/>
</linearGradient>
<linearGradient id="paint1_linear_537_7019" x1="99.7225" y1="167.13" x2="42.2278" y2="-13.4452" gradientUnits="userSpaceOnUse">
<stop stop-color="#4696F0"/>
<stop offset="1" stop-color="#43B4DB"/>
</linearGradient>
</defs>
</svg>
