<svg width="360" height="724" viewBox="0 0 360 724" fill="none" xmlns="http://www.w3.org/2000/svg">
<g clip-path="url(#clip0_537_6460)">
<rect width="360" height="724" fill="url(#paint0_linear_537_6460)"/>
<g clip-path="url(#clip1_537_6460)">
<path fill-rule="evenodd" clip-rule="evenodd" d="M220.9 313C216.9 326.6 222.3 339.4 237.1 351.4C251.8 363.6 277.2 379.5 313.3 399.4C330.3 408.7 346.2 417.8 361 426.8V724H1V530.3C24 554.3 50.8 576.4 81 596.6C115.9 620.1 151.3 637.4 186.5 648.6C216.8 658.2 239.3 662.1 254.1 660.1C268.9 658 278.1 651 281.7 638.7C285.9 624.5 280.5 611.3 265.5 598.8C250.7 586.2 225 569.6 188.4 548.9C141.6 522.1 103.3 496.9 73.6 473.7C43.9 450.5 20.8 420.8 4.5 384.2C3.3 381.4 2.1 378.6 1.1 375.8V257.8C1.3 257.2 1.4 256.6 1.6 255.9C3.8 248.3 6.3 241.1 9.2 234C16.4 238 24.1 241.4 32.2 243.9C56.8 251.7 83.1 251.4 107.4 243.3L149.6 274.7C152.4 276.8 156.4 274.6 156.3 271L155 214.6C171.4 199 183.7 179 190.2 156.7C195.6 138.2 196.9 119.5 194.7 101.6C195.2 101.5 195.7 101.5 196.3 101.4C245 96.1 300 102.8 361 121.2V314.7C346.7 307.7 332.2 301.9 317.7 297.3C260.9 279.2 229.2 284.6 220.9 313Z" fill="url(#paint1_linear_537_6460)" fill-opacity="0.05"/>
<path d="M134.1 49.3C127.6 71.5 115.2 91.7 98.7996 107.4L100.2 164C100.3 167.6 96.2996 169.8 93.4996 167.7L51.1996 136.2C34.9996 141.6 17.9996 143.6 1.09961 142V0H139.3C140.5 16.2 138.9 32.8 134.1 49.3Z" fill="url(#paint2_linear_537_6460)" fill-opacity="0.05"/>
</g>
</g>
<defs>
<linearGradient id="paint0_linear_537_6460" x1="180" y1="-3.07491e-06" x2="387.5" y2="808.5" gradientUnits="userSpaceOnUse">
<stop stop-color="#003566"/>
<stop offset="1" stop-color="#000814"/>
</linearGradient>
<linearGradient id="paint1_linear_537_6460" x1="284.702" y1="748.293" x2="89.4696" y2="135.124" gradientUnits="userSpaceOnUse">
<stop stop-color="#4696F0"/>
<stop offset="1" stop-color="#43B4DB"/>
</linearGradient>
<linearGradient id="paint2_linear_537_6460" x1="100.722" y1="167.13" x2="43.2273" y2="-13.4452" gradientUnits="userSpaceOnUse">
<stop stop-color="#4696F0"/>
<stop offset="1" stop-color="#43B4DB"/>
</linearGradient>
<clipPath id="clip0_537_6460">
<rect width="360" height="724" fill="white"/>
</clipPath>
<clipPath id="clip1_537_6460">
<rect width="360" height="724" fill="white" transform="translate(1)"/>
</clipPath>
</defs>
</svg>
