<svg width="100" height="100" viewBox="0 0 100 100" fill="none" xmlns="http://www.w3.org/2000/svg">
<path d="M75.0019 75.0019C88.808 75.0019 100 63.8099 100 50.0039C100 36.1979 88.808 25.0059 75.0019 25.0059C61.1959 25.0059 50.0039 36.1979 50.0039 50.0039C50.0039 63.8099 61.1959 75.0019 75.0019 75.0019Z" fill="#08CAFB"/>
<path d="M24.998 75.0019C38.8041 75.0019 49.9961 63.8099 49.9961 50.0039C49.9961 36.1979 38.8041 25.0059 24.998 25.0059C11.192 25.0059 0 36.1979 0 50.0039C0 63.8099 11.192 75.0019 24.998 75.0019Z" fill="#E0CC17"/>
<path d="M50.0039 49.9961C63.8099 49.9961 75.0019 38.8041 75.0019 24.998C75.0019 11.192 63.8099 0 50.0039 0C36.1979 0 25.0059 11.192 25.0059 24.998C25.0059 38.8041 36.1979 49.9961 50.0039 49.9961Z" fill="#67C785"/>
<path d="M50.0039 100C63.8099 100 75.0019 88.808 75.0019 75.0019C75.0019 61.1959 63.8099 50.0039 50.0039 50.0039C36.1979 50.0039 25.0059 61.1959 25.0059 75.0019C25.0059 88.808 36.1979 100 50.0039 100Z" fill="#F36F86"/>
<path d="M11.7648 49.9942C11.766 41.6957 14.467 33.6229 19.4601 26.9946C24.4531 20.3663 31.467 15.5423 39.4429 13.251C47.4188 10.9597 55.9236 11.3255 63.6734 14.2931C71.4231 17.2607 77.9969 22.6691 82.4024 29.7016C86.8079 36.7342 88.8059 45.0091 88.0946 53.277C87.3834 61.545 84.0015 69.3571 78.4597 75.5339C72.9179 81.7107 65.5169 85.9169 57.3742 87.5174C49.2315 89.1178 40.7892 88.0257 33.3218 84.4059H18.0277C17.3834 84.4039 16.766 84.1471 16.3104 83.6915C15.8548 83.2359 15.598 82.6185 15.5959 81.9742V66.6801C13.0688 61.4811 11.7586 55.7749 11.7648 49.9942Z" fill="#131940"/>
<path d="M57.172 40.0893C56.5168 39.2617 55.6203 38.6582 54.4823 38.2789C53.3789 37.8651 52.3272 37.6582 51.3272 37.6582C50.741 37.6582 50.1375 37.7272 49.5168 37.8651C48.8961 38.0031 48.3099 38.2272 47.7582 38.5376C47.2065 38.8134 46.7582 39.1927 46.4134 39.6755C46.0685 40.1582 45.8961 40.7445 45.8961 41.4341C45.8961 42.5376 46.3099 43.3824 47.1375 43.9686C47.9651 44.5548 48.9996 45.0548 50.241 45.4686C51.5168 45.8824 52.8789 46.2962 54.3272 46.71C55.7754 47.1238 57.1203 47.71 58.3617 48.4686C59.6375 49.2272 60.6892 50.2445 61.5168 51.5203C62.3444 52.7962 62.7582 54.5031 62.7582 56.641C62.7582 58.6755 62.3789 60.4514 61.6203 61.9686C60.8617 63.4859 59.8272 64.7445 58.5168 65.7445C57.241 66.7445 55.741 67.4859 54.0168 67.9686C52.3272 68.4514 50.5341 68.6928 48.6375 68.6928C46.2582 68.6928 44.0513 68.3307 42.0168 67.6066C39.9823 66.8824 38.0858 65.71 36.3271 64.0893L42.0685 57.779C42.8961 58.8824 43.9306 59.7445 45.172 60.3652C46.4478 60.9514 47.7582 61.2445 49.103 61.2445C49.7582 61.2445 50.4134 61.1755 51.0685 61.0376C51.7582 60.8652 52.3616 60.6238 52.8789 60.3134C53.4306 60.0031 53.8617 59.6065 54.172 59.1238C54.5168 58.641 54.6892 58.0721 54.6892 57.4169C54.6892 56.3134 54.2582 55.4514 53.3961 54.8307C52.5685 54.1755 51.5168 53.6238 50.241 53.1755C48.9651 52.7272 47.5858 52.2789 46.103 51.8307C44.6203 51.3824 43.2409 50.7789 41.9651 50.0203C40.6892 49.2617 39.6203 48.2617 38.7582 47.0203C37.9306 45.7789 37.5168 44.141 37.5168 42.1065C37.5168 40.141 37.8961 38.4169 38.6547 36.9341C39.4478 35.4513 40.4823 34.21 41.7582 33.21C43.0685 32.21 44.5685 31.4686 46.2582 30.9858C47.9479 30.4686 49.6892 30.21 51.4823 30.21C53.5513 30.21 55.5513 30.5031 57.4823 31.0893C59.4134 31.6755 61.1548 32.6582 62.7065 34.0376L57.172 40.0893Z" fill="white"/>
<path d="M75.0019 75.0019C88.808 75.0019 100 63.8099 100 50.0039C100 36.1979 88.808 25.0059 75.0019 25.0059C61.1959 25.0059 50.0039 36.1979 50.0039 50.0039C50.0039 63.8099 61.1959 75.0019 75.0019 75.0019Z" fill="#4696F0"/>
<path d="M24.998 75.0019C38.8041 75.0019 49.9961 63.8099 49.9961 50.0039C49.9961 36.1979 38.8041 25.0059 24.998 25.0059C11.192 25.0059 0 36.1979 0 50.0039C0 63.8099 11.192 75.0019 24.998 75.0019Z" fill="#4696F0"/>
<path d="M50.0039 49.9961C63.8099 49.9961 75.0019 38.8041 75.0019 24.998C75.0019 11.192 63.8099 0 50.0039 0C36.1979 0 25.0059 11.192 25.0059 24.998C25.0059 38.8041 36.1979 49.9961 50.0039 49.9961Z" fill="#F3B74C"/>
<path d="M50.0039 100C63.8099 100 75.0019 88.808 75.0019 75.0019C75.0019 61.1959 63.8099 50.0039 50.0039 50.0039C36.1979 50.0039 25.0059 61.1959 25.0059 75.0019C25.0059 88.808 36.1979 100 50.0039 100Z" fill="#F3B74C"/>
<path d="M11.7648 49.9942C11.766 41.6957 14.467 33.6229 19.4601 26.9946C24.4531 20.3663 31.467 15.5423 39.4429 13.251C47.4188 10.9597 55.9236 11.3255 63.6734 14.2931C71.4231 17.2607 77.9969 22.6691 82.4024 29.7016C86.8079 36.7342 88.8059 45.0091 88.0946 53.277C87.3834 61.545 84.0015 69.3571 78.4597 75.5339C72.9179 81.7107 65.5169 85.9169 57.3742 87.5174C49.2315 89.1178 40.7892 88.0257 33.3218 84.4059H18.0277C17.3834 84.4039 16.766 84.1471 16.3104 83.6915C15.8548 83.2359 15.598 82.6185 15.5959 81.9742V66.6801C13.0688 61.4811 11.7586 55.7749 11.7648 49.9942Z" fill="#131940"/>
<rect x="66.0713" y="36.4715" width="5.72786" height="40.4461" rx="2.86393" transform="rotate(45 66.0713 36.4715)" fill="white" stroke="white" stroke-width="3"/>
<rect x="28.8787" y="56.4775" width="5.72786" height="17.8792" rx="2.86393" transform="rotate(-45 28.8787 56.4775)" fill="white" stroke="white" stroke-width="3"/>
</svg>
