<svg width="41" height="40" viewBox="0 0 41 40" fill="none" xmlns="http://www.w3.org/2000/svg">
<path d="M30.6103 24.956V27.956C30.6114 28.2345 30.5544 28.5102 30.4428 28.7653C30.3312 29.0205 30.1676 29.2496 29.9624 29.4379C29.7571 29.6261 29.5149 29.7695 29.251 29.8587C28.9872 29.9479 28.7077 29.9811 28.4303 29.956C25.3531 29.6216 22.3973 28.5701 19.8003 26.886C17.3841 25.3507 15.3356 23.3022 13.8003 20.886C12.1103 18.2772 11.0585 15.307 10.7303 12.216C10.7053 11.9395 10.7382 11.6607 10.8268 11.3976C10.9154 11.1345 11.0579 10.8927 11.2451 10.6876C11.4322 10.4825 11.6601 10.3187 11.9141 10.2065C12.1681 10.0943 12.4426 10.0362 12.7203 10.036H15.7203C16.2056 10.0312 16.6761 10.2031 17.044 10.5195C17.412 10.836 17.6524 11.2754 17.7203 11.756C17.8469 12.7161 18.0817 13.6587 18.4203 14.566C18.5548 14.9239 18.5839 15.3129 18.5042 15.6869C18.4244 16.0608 18.2391 16.4041 17.9703 16.676L16.7003 17.946C18.1238 20.4495 20.1967 22.5224 22.7003 23.946L23.9703 22.676C24.2422 22.4071 24.5854 22.2218 24.9594 22.1421C25.3334 22.0623 25.7224 22.0914 26.0803 22.226C26.9876 22.5645 27.9302 22.7994 28.8903 22.926C29.3761 22.9945 29.8197 23.2392 30.1368 23.6135C30.4539 23.9878 30.6225 24.4656 30.6103 24.956Z" stroke="#FF4AA0" stroke-width="2" stroke-linecap="round" stroke-linejoin="round"/>
<path d="M30.6103 24.956V27.956C30.6114 28.2345 30.5544 28.5102 30.4428 28.7653C30.3312 29.0205 30.1676 29.2496 29.9624 29.4379C29.7571 29.6261 29.5149 29.7695 29.251 29.8587C28.9872 29.9479 28.7077 29.9811 28.4303 29.956C25.3531 29.6216 22.3973 28.5701 19.8003 26.886C17.3841 25.3507 15.3356 23.3022 13.8003 20.886C12.1103 18.2772 11.0585 15.307 10.7303 12.216C10.7053 11.9395 10.7382 11.6607 10.8268 11.3976C10.9154 11.1345 11.0579 10.8927 11.2451 10.6876C11.4322 10.4825 11.6601 10.3187 11.9141 10.2065C12.1681 10.0943 12.4426 10.0362 12.7203 10.036H15.7203C16.2056 10.0312 16.6761 10.2031 17.044 10.5195C17.412 10.836 17.6524 11.2754 17.7203 11.756C17.8469 12.7161 18.0817 13.6587 18.4203 14.566C18.5548 14.9239 18.5839 15.3129 18.5042 15.6869C18.4244 16.0608 18.2391 16.4041 17.9703 16.676L16.7003 17.946C18.1238 20.4495 20.1967 22.5224 22.7003 23.946L23.9703 22.676C24.2422 22.4071 24.5854 22.2218 24.9594 22.1421C25.3334 22.0623 25.7224 22.0914 26.0803 22.226C26.9876 22.5645 27.9302 22.7994 28.8903 22.926C29.3761 22.9945 29.8197 23.2392 30.1368 23.6135C30.4539 23.9878 30.6225 24.4656 30.6103 24.956Z" stroke="black" stroke-opacity="0.2" stroke-width="2" stroke-linecap="round" stroke-linejoin="round"/>
<path d="M30.6103 24.956V27.956C30.6114 28.2345 30.5544 28.5102 30.4428 28.7653C30.3312 29.0205 30.1676 29.2496 29.9624 29.4379C29.7571 29.6261 29.5149 29.7695 29.251 29.8587C28.9872 29.9479 28.7077 29.9811 28.4303 29.956C25.3531 29.6216 22.3973 28.5701 19.8003 26.886C17.3841 25.3507 15.3356 23.3022 13.8003 20.886C12.1103 18.2772 11.0585 15.307 10.7303 12.216C10.7053 11.9395 10.7382 11.6607 10.8268 11.3976C10.9154 11.1345 11.0579 10.8927 11.2451 10.6876C11.4322 10.4825 11.6601 10.3187 11.9141 10.2065C12.1681 10.0943 12.4426 10.0362 12.7203 10.036H15.7203C16.2056 10.0312 16.6761 10.2031 17.044 10.5195C17.412 10.836 17.6524 11.2754 17.7203 11.756C17.8469 12.7161 18.0817 13.6587 18.4203 14.566C18.5548 14.9239 18.5839 15.3129 18.5042 15.6869C18.4244 16.0608 18.2391 16.4041 17.9703 16.676L16.7003 17.946C18.1238 20.4495 20.1967 22.5224 22.7003 23.946L23.9703 22.676C24.2422 22.4071 24.5854 22.2218 24.9594 22.1421C25.3334 22.0623 25.7224 22.0914 26.0803 22.226C26.9876 22.5645 27.9302 22.7994 28.8903 22.926C29.3761 22.9945 29.8197 23.2392 30.1368 23.6135C30.4539 23.9878 30.6225 24.4656 30.6103 24.956Z" stroke="black" stroke-opacity="0.2" stroke-width="2" stroke-linecap="round" stroke-linejoin="round"/>
</svg>
