<svg width="16" height="16" viewBox="0 0 16 16" fill="none" xmlns="http://www.w3.org/2000/svg">
<path fill-rule="evenodd" clip-rule="evenodd" d="M1.14747 0L0 1.13939L3.86263 5.00202H1.30101V9.8505H4.53333L8.57374 13.8909V9.71313L11.2566 12.396C10.9172 12.5818 10.5697 12.7354 10.1899 12.8485V14.5131C10.998 14.3273 11.7495 13.996 12.4283 13.5677L14.8606 16L16 14.8606L1.14747 0ZM6.95758 9.98788L5.20404 8.23434H2.91717V6.61818H5.47879L6.95758 8.09697V9.98788ZM6.48081 3.05455L8.57374 0.961616V5.13939L6.48081 3.05455ZM12.2101 7.42626C12.2101 5.99596 11.3859 4.76768 10.1899 4.1697V6.75556L12.0162 8.58182C12.1374 8.21818 12.2101 7.8303 12.2101 7.42626ZM13.5515 10.1172C13.9798 9.31717 14.2303 8.39596 14.2303 7.42626C14.2303 4.86465 12.5253 2.69899 10.1899 2.00404V0.339394C13.4303 1.07475 15.8465 3.96768 15.8465 7.42626C15.8465 8.84849 15.4343 10.1737 14.7313 11.297L13.5515 10.1172Z" fill="white"/>
</svg>
