<svg width="14" height="14" viewBox="0 0 14 14" fill="none" xmlns="http://www.w3.org/2000/svg">
<g id="Group 1847">
<path id="Vector" fill-rule="evenodd" clip-rule="evenodd" d="M8.64335 0.824219H3.69923C3.37153 0.826567 3.05815 0.958796 2.82782 1.1919C2.59749 1.42501 2.46902 1.73995 2.4706 2.06765V12.0151C2.46902 12.3428 2.59749 12.6578 2.82782 12.8909C3.05815 13.124 3.37153 13.2562 3.69923 13.2586H11.1184C11.4469 13.257 11.7613 13.1252 11.9927 12.8921C12.2242 12.659 12.3537 12.3436 12.3529 12.0151V4.55452L8.64335 0.824219ZM8.06605 10.298H4.48969V9.5697H8.06605V10.298ZM10.2124 8.86805H4.48969V8.13975H10.2124V8.86805ZM10.2124 7.43514H4.48969V6.7098H10.2124V7.43514ZM10.2124 6.00519H4.48969V5.27689H10.2124V6.00519Z" fill="#9AA0A6"/>
</g>
</svg>
