<svg width="25" height="20" viewBox="0 0 25 20" fill="none" xmlns="http://www.w3.org/2000/svg">
<path fill-rule="evenodd" clip-rule="evenodd" d="M6.48438 5C6.48438 3.34315 7.82752 2 9.48438 2C11.1412 2 12.4844 3.34315 12.4844 5C12.4844 6.65685 11.1412 8 9.48438 8C7.82752 8 6.48438 6.65685 6.48438 5ZM9.48438 0C6.72295 0 4.48438 2.23858 4.48438 5C4.48438 7.76142 6.72295 10 9.48438 10C12.2458 10 14.4844 7.76142 14.4844 5C14.4844 2.23858 12.2458 0 9.48438 0ZM5.98438 12C4.65829 12 3.38652 12.5268 2.44884 13.4645C1.51116 14.4021 0.984375 15.6739 0.984375 17V19C0.984375 19.5523 1.43209 20 1.98438 20C2.53666 20 2.98438 19.5523 2.98438 19V17C2.98438 16.2044 3.30045 15.4413 3.86305 14.8787C4.42566 14.3161 5.18873 14 5.98438 14H12.9844C13.78 14 14.5431 14.3161 15.1057 14.8787C15.6683 15.4413 15.9844 16.2043 15.9844 17V19C15.9844 19.5523 16.4321 20 16.9844 20C17.5367 20 17.9844 19.5523 17.9844 19V17C17.9844 15.6739 17.4576 14.4021 16.5199 13.4645C15.5822 12.5268 14.3105 12 12.9844 12H5.98438ZM20.9844 5C21.5367 5 21.9844 5.44772 21.9844 6V8H23.9844C24.5367 8 24.9844 8.44771 24.9844 9C24.9844 9.55229 24.5367 10 23.9844 10H21.9844V12C21.9844 12.5523 21.5367 13 20.9844 13C20.4321 13 19.9844 12.5523 19.9844 12V10H17.9844C17.4321 10 16.9844 9.55229 16.9844 9C16.9844 8.44771 17.4321 8 17.9844 8H19.9844V6C19.9844 5.44772 20.4321 5 20.9844 5Z" fill="white"/>
</svg>
