<svg width="72" height="72" viewBox="0 0 72 72" fill="none" xmlns="http://www.w3.org/2000/svg">
<path d="M16.016 60.12C15.168 60.12 14.4 59.936 13.712 59.568C13.032 59.192 12.496 58.676 12.104 58.02C11.72 57.364 11.528 56.624 11.528 55.8C11.528 54.976 11.724 54.236 12.116 53.58C12.508 52.924 13.044 52.412 13.724 52.044C14.412 51.668 15.18 51.48 16.028 51.48C16.716 51.48 17.344 51.6 17.912 51.84C18.48 52.08 18.96 52.428 19.352 52.884L18.344 53.832C17.736 53.176 16.988 52.848 16.1 52.848C15.524 52.848 15.008 52.976 14.552 53.232C14.096 53.48 13.74 53.828 13.484 54.276C13.228 54.724 13.1 55.232 13.1 55.8C13.1 56.368 13.228 56.876 13.484 57.324C13.74 57.772 14.096 58.124 14.552 58.38C15.008 58.628 15.524 58.752 16.1 58.752C16.988 58.752 17.736 58.42 18.344 57.756L19.352 58.716C18.96 59.172 18.476 59.52 17.9 59.76C17.332 60 16.704 60.12 16.016 60.12ZM23.3484 60.084C22.7004 60.084 22.1164 59.944 21.5964 59.664C21.0764 59.384 20.6684 58.996 20.3724 58.5C20.0844 57.996 19.9404 57.428 19.9404 56.796C19.9404 56.164 20.0844 55.6 20.3724 55.104C20.6684 54.608 21.0764 54.22 21.5964 53.94C22.1164 53.66 22.7004 53.52 23.3484 53.52C24.0044 53.52 24.5924 53.66 25.1124 53.94C25.6324 54.22 26.0364 54.608 26.3244 55.104C26.6204 55.6 26.7684 56.164 26.7684 56.796C26.7684 57.428 26.6204 57.996 26.3244 58.5C26.0364 58.996 25.6324 59.384 25.1124 59.664C24.5924 59.944 24.0044 60.084 23.3484 60.084ZM23.3484 58.8C23.9004 58.8 24.3564 58.616 24.7164 58.248C25.0764 57.88 25.2564 57.396 25.2564 56.796C25.2564 56.196 25.0764 55.712 24.7164 55.344C24.3564 54.976 23.9004 54.792 23.3484 54.792C22.7964 54.792 22.3404 54.976 21.9804 55.344C21.6284 55.712 21.4524 56.196 21.4524 56.796C21.4524 57.396 21.6284 57.88 21.9804 58.248C22.3404 58.616 22.7964 58.8 23.3484 58.8ZM31.8388 53.52C32.6468 53.52 33.2948 53.756 33.7828 54.228C34.2708 54.7 34.5148 55.4 34.5148 56.328V60H33.0148V56.52C33.0148 55.96 32.8828 55.54 32.6188 55.26C32.3548 54.972 31.9788 54.828 31.4908 54.828C30.9388 54.828 30.5028 54.996 30.1828 55.332C29.8628 55.66 29.7028 56.136 29.7028 56.76V60H28.2028V53.592H29.6308V54.42C29.8788 54.124 30.1908 53.9 30.5668 53.748C30.9428 53.596 31.3668 53.52 31.8388 53.52ZM40.2696 59.652C40.0936 59.796 39.8776 59.904 39.6216 59.976C39.3736 60.048 39.1096 60.084 38.8296 60.084C38.1256 60.084 37.5816 59.9 37.1976 59.532C36.8136 59.164 36.6216 58.628 36.6216 57.924V54.84H35.5656V53.64H36.6216V52.176H38.1216V53.64H39.8376V54.84H38.1216V57.888C38.1216 58.2 38.1976 58.44 38.3496 58.608C38.5016 58.768 38.7216 58.848 39.0096 58.848C39.3456 58.848 39.6256 58.76 39.8496 58.584L40.2696 59.652ZM43.9515 53.52C44.8955 53.52 45.6155 53.748 46.1115 54.204C46.6155 54.652 46.8675 55.332 46.8675 56.244V60H45.4515V59.22C45.2675 59.5 45.0035 59.716 44.6595 59.868C44.3235 60.012 43.9155 60.084 43.4355 60.084C42.9555 60.084 42.5355 60.004 42.1755 59.844C41.8155 59.676 41.5355 59.448 41.3355 59.16C41.1435 58.864 41.0475 58.532 41.0475 58.164C41.0475 57.588 41.2595 57.128 41.6835 56.784C42.1155 56.432 42.7915 56.256 43.7115 56.256H45.3675V56.16C45.3675 55.712 45.2315 55.368 44.9595 55.128C44.6955 54.888 44.2995 54.768 43.7715 54.768C43.4115 54.768 43.0555 54.824 42.7035 54.936C42.3595 55.048 42.0675 55.204 41.8275 55.404L41.2395 54.312C41.5755 54.056 41.9795 53.86 42.4515 53.724C42.9235 53.588 43.4235 53.52 43.9515 53.52ZM43.7475 58.992C44.1235 58.992 44.4555 58.908 44.7435 58.74C45.0395 58.564 45.2475 58.316 45.3675 57.996V57.252H43.8195C42.9555 57.252 42.5235 57.536 42.5235 58.104C42.5235 58.376 42.6315 58.592 42.8475 58.752C43.0635 58.912 43.3635 58.992 43.7475 58.992ZM51.7912 60.084C51.1272 60.084 50.5312 59.944 50.0032 59.664C49.4752 59.384 49.0632 58.996 48.7672 58.5C48.4712 57.996 48.3232 57.428 48.3232 56.796C48.3232 56.164 48.4712 55.6 48.7672 55.104C49.0632 54.608 49.4712 54.22 49.9912 53.94C50.5192 53.66 51.1192 53.52 51.7912 53.52C52.4232 53.52 52.9752 53.648 53.4472 53.904C53.9272 54.16 54.2872 54.528 54.5272 55.008L53.3752 55.68C53.1912 55.384 52.9592 55.164 52.6792 55.02C52.4072 54.868 52.1072 54.792 51.7792 54.792C51.2192 54.792 50.7552 54.976 50.3872 55.344C50.0192 55.704 49.8352 56.188 49.8352 56.796C49.8352 57.404 50.0152 57.892 50.3752 58.26C50.7432 58.62 51.2112 58.8 51.7792 58.8C52.1072 58.8 52.4072 58.728 52.6792 58.584C52.9592 58.432 53.1912 58.208 53.3752 57.912L54.5272 58.584C54.2792 59.064 53.9152 59.436 53.4352 59.7C52.9632 59.956 52.4152 60.084 51.7912 60.084ZM59.7579 59.652C59.5819 59.796 59.3659 59.904 59.1099 59.976C58.8619 60.048 58.5979 60.084 58.3179 60.084C57.6139 60.084 57.0699 59.9 56.6859 59.532C56.3019 59.164 56.1099 58.628 56.1099 57.924V54.84H55.0539V53.64H56.1099V52.176H57.6099V53.64H59.3259V54.84H57.6099V57.888C57.6099 58.2 57.6859 58.44 57.8379 58.608C57.9899 58.768 58.2099 58.848 58.4979 58.848C58.8339 58.848 59.1139 58.76 59.3379 58.584L59.7579 59.652Z" fill="#4696F0"/>
<path fill-rule="evenodd" clip-rule="evenodd" d="M36 12.5C29.1 12.5 23.5 18.1 23.5 25C23.5 31.9 29.1 37.5 36 37.5C42.9 37.5 48.5 31.9 48.5 25C48.5 18.1 42.9 12.5 36 12.5ZM43.95 31.0375C42.1625 28.8625 37.825 28.125 36 28.125C34.175 28.125 29.8375 28.8625 28.05 31.0375C26.775 29.3625 26 27.275 26 25C26 19.4875 30.4875 15 36 15C41.5125 15 46 19.4875 46 25C46 27.275 45.225 29.3625 43.95 31.0375ZM31.625 21.875C31.625 19.45 33.575 17.5 36 17.5C38.425 17.5 40.375 19.45 40.375 21.875C40.375 24.3 38.425 26.25 36 26.25C33.575 26.25 31.625 24.3 31.625 21.875Z" fill="#4696F0"/>
</svg>
