<svg width="41" height="40" viewBox="0 0 41 40" fill="none" xmlns="http://www.w3.org/2000/svg">
<path d="M29.3335 19.5C29.3369 20.8199 29.0286 22.1219 28.4335 23.3C27.7279 24.7118 26.6432 25.8992 25.3009 26.7293C23.9586 27.5594 22.4117 27.9994 20.8335 28C19.5136 28.0035 18.2116 27.6951 17.0335 27.1L11.3335 29L13.2335 23.3C12.6384 22.1219 12.3301 20.8199 12.3335 19.5C12.3341 17.9218 12.7741 16.3749 13.6042 15.0326C14.4343 13.6903 15.6218 12.6056 17.0335 11.9C18.2116 11.305 19.5136 10.9966 20.8335 11H21.3335C23.4178 11.115 25.3865 11.9948 26.8626 13.4709C28.3387 14.947 29.2185 16.9157 29.3335 19V19.5Z" stroke="#FF4AA0" stroke-width="2" stroke-linecap="round" stroke-linejoin="round"/>
<path d="M29.3335 19.5C29.3369 20.8199 29.0286 22.1219 28.4335 23.3C27.7279 24.7118 26.6432 25.8992 25.3009 26.7293C23.9586 27.5594 22.4117 27.9994 20.8335 28C19.5136 28.0035 18.2116 27.6951 17.0335 27.1L11.3335 29L13.2335 23.3C12.6384 22.1219 12.3301 20.8199 12.3335 19.5C12.3341 17.9218 12.7741 16.3749 13.6042 15.0326C14.4343 13.6903 15.6218 12.6056 17.0335 11.9C18.2116 11.305 19.5136 10.9966 20.8335 11H21.3335C23.4178 11.115 25.3865 11.9948 26.8626 13.4709C28.3387 14.947 29.2185 16.9157 29.3335 19V19.5Z" stroke="black" stroke-opacity="0.2" stroke-width="2" stroke-linecap="round" stroke-linejoin="round"/>
<path d="M29.3335 19.5C29.3369 20.8199 29.0286 22.1219 28.4335 23.3C27.7279 24.7118 26.6432 25.8992 25.3009 26.7293C23.9586 27.5594 22.4117 27.9994 20.8335 28C19.5136 28.0035 18.2116 27.6951 17.0335 27.1L11.3335 29L13.2335 23.3C12.6384 22.1219 12.3301 20.8199 12.3335 19.5C12.3341 17.9218 12.7741 16.3749 13.6042 15.0326C14.4343 13.6903 15.6218 12.6056 17.0335 11.9C18.2116 11.305 19.5136 10.9966 20.8335 11H21.3335C23.4178 11.115 25.3865 11.9948 26.8626 13.4709C28.3387 14.947 29.2185 16.9157 29.3335 19V19.5Z" stroke="black" stroke-opacity="0.2" stroke-width="2" stroke-linecap="round" stroke-linejoin="round"/>
</svg>
