<svg width="14" height="14" viewBox="0 0 14 14" fill="none" xmlns="http://www.w3.org/2000/svg">
<path fill-rule="evenodd" clip-rule="evenodd" d="M11.6666 2.91667H9.81746L8.74996 1.75H5.24996L4.18246 2.91667H2.33329C1.69163 2.91667 1.16663 3.44167 1.16663 4.08333V11.0833C1.16663 11.725 1.69163 12.25 2.33329 12.25H11.6666C12.3083 12.25 12.8333 11.725 12.8333 11.0833V4.08333C12.8333 3.44167 12.3083 2.91667 11.6666 2.91667ZM4.66663 7.58333C4.66663 6.29417 5.71079 5.25 6.99996 5.25C8.28913 5.25 9.33329 6.29417 9.33329 7.58333C9.33329 8.8725 8.28913 9.91667 6.99996 9.91667C5.71079 9.91667 4.66663 8.8725 4.66663 7.58333Z" fill="#9AA0A6"/>
</svg>
