<svg width="16" height="16" viewBox="0 0 16 16" fill="none" xmlns="http://www.w3.org/2000/svg">
<path fill-rule="evenodd" clip-rule="evenodd" d="M7.99992 3.39333C8.72659 2.54 9.83992 2 10.9999 2C13.0533 2 14.6666 3.61333 14.6666 5.66667C14.6666 8.1846 12.4036 10.2366 8.97503 13.3457L8.96659 13.3533L7.99992 14.2333L7.03325 13.36L7.00693 13.3361C3.58834 10.2295 1.33325 8.18022 1.33325 5.66667C1.33325 3.61333 2.94659 2 4.99992 2C6.15992 2 7.27325 2.54 7.99992 3.39333ZM7.99992 12.4333L8.06659 12.3667C11.2399 9.49333 13.3333 7.59333 13.3333 5.66667C13.3333 4.33333 12.3333 3.33333 10.9999 3.33333C9.97325 3.33333 8.97325 3.99333 8.62659 4.90667H7.37992C7.02659 3.99333 6.02659 3.33333 4.99992 3.33333C3.66659 3.33333 2.66659 4.33333 2.66659 5.66667C2.66659 7.59333 4.75992 9.49333 7.93325 12.3667L7.99992 12.4333Z" fill="#FEFEFE"/>
</svg>
