<svg width="18" height="18" viewBox="0 0 18 18" fill="none" xmlns="http://www.w3.org/2000/svg">
<path d="M13.025 11.4742L10.405 14.0942C7.65503 12.6042 5.39503 10.3442 3.90503 7.59416L6.52503 4.97416C6.76503 4.73416 6.86503 4.39416 6.79503 4.07416L6.14503 0.81416C6.05503 0.35416 5.64503 0.0141602 5.16503 0.0141602H1.01503C0.455033 0.0141602 -0.0149668 0.48416 0.0150332 1.04416C0.185033 3.95416 1.05503 6.67416 2.44503 9.05416C4.01503 11.7442 6.25503 13.9842 8.94503 15.5542C11.325 16.9442 14.045 17.8142 16.955 17.9842C17.515 18.0142 17.985 17.5442 17.985 16.9842V12.8342C17.985 12.3542 17.645 11.9442 17.185 11.8542L13.925 11.2042C13.595 11.1342 13.255 11.2442 13.025 11.4742Z" fill="white"/>
</svg>
